<svg width="400" height="300" viewBox="0 0 400 300" fill="none" xmlns="http://www.w3.org/2000/svg">
<path opacity="0.2" d="M400 0H0V300H400V0Z" fill="#E5E5E5"/>
<path d="M199 129C198.7 133 197.2 136.9 197.9 140.8C198.2 142.3 198.7 143.9 198.2 145.3C198.2 145.3 198.2 145.4 198.1 145.4C197.5 146.7 196.1 147.3 194.7 147.7C190.5 149 186.1 149.6 181.7 149.2C179.3 149 176.9 148.6 174.5 148.8C170.2 149.3 166.2 152 161.9 152C158.5 152 155.3 150.4 152 149.6C148.3 148.8 144.4 149.1 140.9 150.4C138.7 151.3 136.1 152.5 134 151.3C133.1 150.8 132.5 149.9 131.7 149.3C130.8 148.7 129.6 148.6 128.6 148.1C127 147.4 125.9 145.8 125 144.4C121.7 139.4 118.6 133.5 120.2 127.7C121.8 121.7 127.8 118.3 132.3 114C134.4 112 136.4 109.5 136.4 106.7C136.4 104.7 135.6 102.9 135 101C134.4 99.0999 134 97.1 133.9 95.2C133.3 85 139.9 75.4 150.3 72.6H150.4C157 70.9 164.1 71.8 170.5 74.1C174.9 75.7 179.3 78 182.2 81.7C186.3 86.9 186.9 94.2001 185.8 100.8C185.4 103.2 184.9 105.8 186.4 107.7C187.2 108.7 188.4 109.3 189.5 109.9C195.6 113.9 199.6 121.5 199 129Z" fill="#0C0909"/>
<path d="M186.6 149.8C186.6 150.1 186.5 150.4 186.3 150.7C186 151.2 185.4 151.6 184.9 151.9C179.3 155.2 172.9 157.2 166.4 157.5C159.9 157.7 153.3 156.1 147.8 152.5C147 152 146.3 151.5 145.8 150.7C144 148 147.4 145.3 149.5 144.1C150.9 143.4 152.4 142.9 153.9 142.4C155.1 142 156.5 141.6 157.3 140.5C157.8 139.8 158 138.9 158 138.1C158.1 136.8 158.1 135.5 158.1 134.2C158.2 129.9 158.3 125.6 158.4 121.4C163.2 121.4 167.9 121.5 172.7 121.5C172.7 124.2 172.7 126.9 172.7 129.6C172.7 131.6 172.5 133.7 172.7 135.7C172.7 136.3 172.8 136.8 172.9 137.3C173.4 139.6 174.9 141.1 176.8 142.3C180 144.2 183.8 145.5 185.9 148.6C186.3 148.8 186.6 149.3 186.6 149.8Z" fill="#B44F28"/>
<path d="M172.8 135.5C172.2 135.6 171.6 135.7 171 135.8C169.4 136 167.8 136 166.2 135.9C163.5 135.7 160.8 135.1 158.3 134.1C158.4 129.8 158.5 125.5 158.6 121.3C163.4 121.3 168.1 121.4 172.9 121.4C172.9 124.1 172.9 126.8 172.9 129.5C172.8 131.4 172.6 133.5 172.8 135.5Z" fill="#974221"/>
<path d="M171 131.3C169.4 131.5 167.8 131.5 166.2 131.4C157.3 130.7 148.7 125.8 143.7 118.3C134.4 104.5 138 84.0004 154.2 77.4004C160.9 74.7004 168.6 75.0001 175.1 78.1001C176.4 78.7001 177.7 79.5003 178.5 80.8003C179.5 82.3003 179.5 84.2 179.7 86C180.6 93 185.3 98.9003 186.9 105.8C188.1 110.8 187.5 116.1 185.3 120.7C183.7 124.1 181.2 127.2 177.9 129C175.8 130.4 173.4 131 171 131.3Z" fill="#B44F28"/>
<path d="M143.7 113.4C143.6 113.2 143.5 113 143.5 112.8C142.8 110.5 144.6 107.9 143.6 105.8C142.9 104.4 141.2 103.7 139.6 103.7C138.2 103.7 136.8 104.3 135.8 105.2C132.3 108.7 135.8 115.5 139.1 117.8C140.1 118.5 141.3 119.1 142.6 119C143.9 118.9 145.1 118 145.2 116.7C145.2 115.5 144.3 114.5 143.7 113.4Z" fill="#B44F28"/>
<path d="M180.4 81.6001C180.4 84.3001 178.7 89.1001 171.4 90.6001C168.1 91.3001 163.5 89.6 161.4 87C160.6 94.7 156.9 100.6 153.3 103.3C145.2 109.4 140.5 105.1 139.7 104.2C137.7 102 135.3 98.9001 134.3 96.1001C133.7 85.9001 140.5 78.4001 150.9 75.6001H151C156.5 74.4001 162.4 74.9004 167.9 76.4004C172.5 77.5004 180.1 81.1001 180.4 81.6001Z" fill="#974221"/>
<path d="M180.4 81.5002C180.3 82.5002 179.9 83.6002 179.4 84.5002C177.6 87.6002 173.9 89.1002 170.4 89.5002C167.1 89.9002 163.4 89.2002 161.3 86.5002C160.9 92.2002 156 99.6005 152.4 102.401C143.1 109.401 139 104 138.2 103.1C136.2 100.9 134.7 98.3002 133.7 95.5002C133.1 85.3002 139.7 75.7005 150.1 72.9005H150.2C155.7 71.7005 161.6 72.2004 167.1 73.7004C171.7 74.9004 176.3 76.9005 179.5 80.4005C179.7 80.7005 180.1 81.1002 180.4 81.5002Z" fill="#0C0909"/>
<path d="M150 100.6C149.9 100.6 149.8 100.6 149.7 100.5C149.5 100.4 149.5 100.1 149.6 99.9005C149.7 99.8005 151.9 96.8001 157.1 96.0001C162.3 95.2001 165.5 98.6004 165.7 98.8004C165.9 99.0004 165.9 99.3005 165.7 99.4005C165.5 99.6005 165.2 99.6005 165.1 99.4005C165.1 99.4005 162.1 96.2005 157.3 96.9005C152.5 97.6005 150.4 100.4 150.4 100.4C150.3 100.5 150.2 100.6 150 100.6Z" fill="#3E1714"/>
<path d="M186.6 98.5999C186.4 98.5999 186.2 98.6002 186.1 98.4002C186 98.3002 184 95 179.2 95.2C174.3 95.5 171.6 97.9998 171.6 97.9998C171.4 98.1998 171.1 98.1998 171 97.9998C170.8 97.7998 170.8 97.5002 171 97.4002C171.1 97.3002 174 94.6001 179.2 94.3001C184.5 94.0001 186.8 97.8002 186.9 97.9002C187 98.1002 187 98.3998 186.7 98.4998C186.7 98.5998 186.7 98.5999 186.6 98.5999Z" fill="#3E1714"/>
<path d="M159.5 103.7C159 104.9 157.4 105.6 156.2 104.6C153.9 102.6 157.7 99.2004 159.3 101.9C159.7 102.5 159.7 103.1 159.5 103.7Z" fill="#3E1714"/>
<path d="M180.2 101.8C179.8 103 178.3 103.9 177 103C174.5 101.3 178 97.5 179.9 100.1C180.3 100.6 180.4 101.3 180.2 101.8Z" fill="#3E1714"/>
<path d="M169.3 114.7C167.9 114.7 166.6 114.2 166.5 114.1C166.3 114 166.2 113.7 166.2 113.5C166.3 113.3 166.6 113.2 166.8 113.2C166.8 113.2 169.9 114.4 171.7 113C174 111.3 170.7 105.3 169.2 103.1C169.1 102.9 169.1 102.6 169.3 102.5C169.5 102.4 169.8 102.4 169.9 102.6C170.1 102.9 175.7 111.1 172.2 113.7C171.4 114.5 170.3 114.7 169.3 114.7Z" fill="#3E1714"/>
<path d="M176.1 119.5C176.6 119.7 176.9 120.3 176.7 120.8C176.1 122.2 174.9 123.3 173.5 123.9C172.2 124.5 170.7 124.5 169.4 123.9C167.7 123 166 119.9 168.9 119.7C171.1 119.5 173.9 118.9 176.1 119.5Z" fill="#3E1714"/>
<path d="M142.9 116.2C142.9 115.8 142.6 115.4 142.4 115.1C141 112.9 140.1 110.4 139.7 107.8C139.6 107.4 139.6 107 139.2 106.9C139.1 106.8 138.9 106.8 138.7 106.8C138.3 106.8 137.8 106.8 137.4 106.9C136 107.3 136.2 108.9 136.6 110C137.2 111.8 138.2 113.5 139.4 115C139.9 115.6 140.5 116.2 141.1 116.7C141.5 117 142.1 117.2 142.5 116.9C142.9 116.7 143 116.5 142.9 116.2Z" fill="#974221"/>
<path d="M144.2 117.301C144.7 117.201 145.2 117.201 145.6 117.401C147 118.401 147.1 122.1 147.1 123.7C147.1 124.7 147.1 125.601 145.9 125.401C144.5 125.201 143.2 124.701 142.1 123.901C141.4 123.501 140.8 123.001 140.4 122.301C139.2 120.001 142.1 117.901 144 117.401C144 117.301 144.1 117.301 144.2 117.301Z" fill="#EB834B"/>
<path d="M219.1 281.5C218.9 283.3 218.4 285.3 216.9 286.2C216 286.8 214.8 286.8 213.7 286.8C197.8 286.9 181.8 286.9 165.9 287C150 286.9 134 286.9 118.1 286.8C117 286.8 115.8 286.8 114.9 286.2C113.4 285.3 113 283.3 112.7 281.5C111.2 271.2 110.4 259.5 117 251.5C120.4 247.4 125.4 244.7 127.5 239.6C127.7 239.1 127.9 238.6 128 238.1C129.3 233.5 128.6 228.1 127.6 223.6C123.3 205.3 116 186.9 120.5 167.8C122 161.4 125 155.1 129.9 150.7C139.8 141.8 156.8 143 165.9 152.6C175.1 143 192 141.8 201.9 150.7C206.8 155.1 209.8 161.4 211.3 167.8C215.8 186.9 208.4 205.3 204.2 223.6C203.1 228.1 202.4 233.5 203.8 238.1C203.9 238.6 204.1 239.1 204.3 239.6C206.3 244.7 211.4 247.4 214.8 251.5C221.5 259.5 220.6 271.2 219.1 281.5Z" fill="#F8C23A"/>
<path d="M203.8 238.1H128.1C129.4 233.5 128.7 228.1 127.7 223.6H204.3C203.2 228.1 202.5 233.5 203.8 238.1Z" fill="#3D3D3D"/>
<path opacity="0.5" d="M171.4 235.9H160.5C158.8 235.9 157.3 234.5 157.3 232.7V229.1C157.3 227.4 158.7 225.9 160.5 225.9H171.4C173.1 225.9 174.6 227.3 174.6 229.1V232.7C174.6 234.4 173.1 235.9 171.4 235.9ZM160.5 228.6C160.3 228.6 160 228.8 160 229.1V232.7C160 232.9 160.2 233.2 160.5 233.2H171.4C171.6 233.2 171.9 233 171.9 232.7V229.1C171.9 228.9 171.7 228.6 171.4 228.6H160.5Z" fill="#E5E5E5"/>
<path d="M192.8 147.6C195.5 144.3 200.7 143.5 204.2 143.1C207.9 142.7 211.7 142.8 215.4 143.3C218.5 143.8 221.7 144.6 224.2 146.6C227 148.9 228.5 152.4 229.7 155.8C233.7 167.3 235.9 179.5 237.1 191.6C238.2 202.9 238.3 215 232.3 224.6C228.1 231.3 221.2 236.1 213.8 239C207.4 241.5 200.5 242.8 193.7 243.7C192.1 243.9 190.5 242.9 190.1 241.3C189 237 186.3 232.9 187.5 228.7C188.1 226.6 189.5 224.9 191 223.3C197.9 216 206.4 210.201 215.7 206.401C208.2 190.701 200.6 174.9 193.1 159.2C191.4 155.6 190.1 151.7 192.5 148.1C192.5 147.9 192.7 147.7 192.8 147.6Z" fill="#F8C23A"/>
<path d="M137.1 149.401C134.2 146.201 129 145.6 125.5 145.5C121.7 145.3 118 145.5 114.3 146.2C111.2 146.8 108 147.801 105.7 149.901C103 152.301 101.7 155.901 100.7 159.301C97.2 171.001 95.6 183.201 95 195.401C94.4 206.701 94.9001 218.8 101.3 228.2C105.8 234.7 112.9 239.201 120.4 241.801C126.9 244.001 133.8 245 140.7 245.5C142.3 245.6 143.8 244.6 144.2 243C145.2 238.7 147.6 234.401 146.2 230.301C145.5 228.201 144 226.6 142.4 225C135.2 218 126.5 212.6 117 209.2C123.8 193.1 130.6 177.1 137.4 161C138.9 157.4 140.1 153.401 137.5 149.901C137.4 149.801 137.3 149.601 137.1 149.401Z" fill="#F8C23A"/>
<path d="M61.6999 107.5C52.8999 123.8 70.7 132.6 66.5 143.3C63.8 150.1 97.2999 145.1 102.7 121.5C108.3 97.2 103.2 111.5 107.2 99.4004C110.8 88.7004 74.4999 89.6 61.6999 107.5Z" fill="#3E1714"/>
<path d="M143.9 286.9C106.6 287 69.4001 287 32.1001 287.1C33.3001 262.2 35.3 237.3 38.2 212.5C39.6 200.3 41.2001 188.2 43.1001 176C44.7001 165.4 49.0999 161.1 59.8999 159.2C76.4999 156.2 93.6999 155.9 110.4 158.1C116.3 158.9 122.5 160.2 126.8 164.3C131.9 169.1 133.2 176.7 134.1 183.6C138.6 218 141.3 252.5 143.9 286.9Z" fill="#5A81F4"/>
<path d="M143.9 286.901C106.6 287.001 69.4001 287 32.1001 287.1C32.5001 278.5 33.0001 269.901 33.6001 261.401C33.8001 258.701 36.8 256.2 41.7 254C42 253.9 42.2 253.8 42.5 253.6C62.3 245.2 109.9 241.8 131.3 251.5C131.6 251.6 131.8 251.701 132.1 251.901C137.5 254.501 141.1 258 141.9 262.6C143.5 270.6 143.3 278.801 143.9 286.901Z" fill="#222222"/>
<path d="M32.7999 275.7C32.6999 276.3 33.1998 276.9 33.3998 277.8C33.7998 279.4 33.3998 281.1 33.3998 282.7C33.3998 284.5 33.4999 286.3 33.9999 288.1C34.4999 290.1 35.4999 292.1 36.9999 293.4C38.3999 294.6 40.0999 295.3 41.7999 295.7C43.0999 296 44.7998 296.4 45.8998 295.4C47.2998 294 46.3999 291.2 45.7999 289.5C44.3999 285.5 44.6998 284.2 44.6998 282.6C45.6998 283.2 46.2998 283.9 47.1998 284.4C47.4998 284.5 47.6999 284.7 47.9999 284.7C48.7999 284.7 49.2999 283.9 49.2999 283.1C49.2999 282.3 48.7998 281.6 48.3998 281C46.0998 278.2 43.1998 276.8 40.6998 274.2C40.1998 273.7 39.3998 272.8 39.3998 272.2C37.3998 273 35.5 274 33.6 275C33.1 275.1 32.8999 275.4 32.7999 275.7Z" fill="#B44F28"/>
<path d="M140.7 275.7C140.8 276.3 140.3 276.9 140.1 277.8C139.7 279.4 140.1 281.1 140.1 282.7C140.1 284.5 140 286.3 139.5 288.1C139 290.1 138 292.1 136.5 293.4C135.1 294.6 133.4 295.3 131.7 295.7C130.4 296 128.7 296.4 127.6 295.4C126.2 294 127.1 291.2 127.7 289.5C129.1 285.5 128.8 284.2 128.8 282.6C127.8 283.2 127.2 283.9 126.3 284.4C126 284.5 125.8 284.7 125.5 284.7C124.7 284.7 124.2 283.9 124.2 283.1C124.2 282.3 124.7 281.6 125.1 281C127.4 278.2 130.3 276.8 132.8 274.2C133.3 273.7 134.1 272.8 134.1 272.2C136.1 273 138 274 139.9 275C140.4 275.1 140.6 275.4 140.7 275.7Z" fill="#B44F28"/>
<path d="M52.8001 161.4C43.8001 165 14.3 187.5 13 230.2C12.1 259.2 27.3 279.6 32 285.4L46.5 277.3C46.5 277.3 36.5001 248.3 43.8001 225.7C51.0001 203.1 66.3999 184.1 66.3999 184.1L52.8001 161.4Z" fill="#5A81F4"/>
<path d="M52.8999 185.8C49.9999 191.6 47.6999 197.7 45.8999 204C44.9999 207.2 44.2001 210.4 43.6001 213.6C43.0001 216.8 42.5001 220.2 42.1001 223.5C41.4001 230.1 41.3001 236.9 41.6001 243.6C41.8001 246.9 42.1 250.3 42.5 253.6C42.2 253.7 41.9 253.8 41.7 254C41 250.7 40.5 247.3 40.2 243.8C39.9 240.4 39.7 237 39.7 233.5C39.7 230.1 39.9 226.6 40.3 223.2C41 216.4 42.4 209.7 44.5 203.3C45.5 200.1 46.8001 197.1 48.1001 194.1C49.6001 191.2 51.0999 188.4 52.8999 185.8Z" fill="#3366CC"/>
<path d="M120.7 160.5C129.7 164.1 159.2 186.6 160.5 229.3C161.4 258.3 146.2 278.7 141.5 284.5L127 276.4C127 276.4 137 247.4 129.7 224.8C122.5 202.2 107.1 183.2 107.1 183.2L120.7 160.5Z" fill="#5A81F4"/>
<path d="M134.3 230.8C134.3 234.2 134.2 237.7 133.8 241.1C133.5 244.7 132.9 248.4 132.2 251.9C131.9 251.8 131.7 251.7 131.4 251.5C131.4 251.3 131.5 251.1 131.5 250.9C131.9 247.6 132.3 244.2 132.5 240.9C132.9 234.2 132.8 227.4 132 220.8C131.7 217.5 131.2 214.2 130.5 210.9C129.9 207.6 129.1 204.4 128.2 201.3C126.4 195 124.1 188.9 121.2 183.1C122.9 185.7 124.4 188.5 125.9 191.5C127.3 194.5 128.5 197.5 129.5 200.7C131.6 207 133 213.7 133.7 220.6C134.1 223.9 134.3 227.4 134.3 230.8Z" fill="#3366CC"/>
<path d="M82.7 170C76.9 168.6 72.3999 163.6 71.8999 157.5C82.6999 156.4 93.5999 156.4 104.4 157.5C104.1 160.9 102.6 163.9 100.3 166.2C98.2 168.3 95.3999 169.7 92.3999 170.2C91.6999 170.3 91 170.1 90.5 169.5C88.8 167.8 87.6001 165.6 87.6001 163.2L85.8 168.3C85.2 169.6 84 170.3 82.7 170Z" fill="#67A3FF"/>
<path d="M96.3 157.4C96.3 157.5 96.3 157.6 96.3 157.7V157.8C96.2 157.9 96.1 158 96 158C91.1 160 85.4 160 80.5 158C80.4 158 80.3 157.9 80.2 157.8C80.1 157.7 80.1001 157.6 80.1001 157.4C80.2001 155.3 80.2999 153.2 80.3999 151C80.4999 149.3 80.5001 147.5 80.6001 145.8C80.7001 143.9 80.8 141.9 80.8 140C80.8 139 80.8999 138.1 80.8999 137.1C80.8999 136.5 80.6 135 81.5 135C86.2 135 90.8 135 95.5 135C95.7 140.1 95.9001 145.2 96.1001 150.4C96.1001 152.8 96.2 155.1 96.3 157.4Z" fill="#B44F28"/>
<path d="M96 150.5C95.8 150.6 95.5999 150.7 95.3999 150.7C91.8999 152.1 88.0999 152.6 84.3999 152.1C82.9999 151.9 81.6 151.6 80.3 151.1C80.4 149.4 80.4 147.6 80.5 145.9C80.6 144 80.7 142 80.7 140.1C80.7 139.1 80.8 138.2 80.8 137.2C80.8 136.6 80.4999 135.1 81.3999 135.1C86.0999 135.1 90.6999 135.1 95.3999 135.1C95.5999 140.2 95.8 145.4 96 150.5Z" fill="#974221"/>
<path d="M109.8 130.8C108.1 136.6 104 141.5 98.8 144.5C97.7 145.1 96.5999 145.7 95.4999 146.1C91.9999 147.5 88.1999 148 84.4999 147.5C77.8999 146.6 71.9999 142.6 67.9999 137.3C66.7999 135.7 65.7999 134 64.9999 132.3C62.8999 127.8 61.7998 122.9 61.8998 118.1C61.8998 117.9 61.8998 117.7 61.8998 117.5C62.1998 106.2 68.4999 95.5003 81.1999 92.8003C86.8999 91.6003 93.0998 92.5002 97.8998 95.7002C99.6998 96.9002 101.3 98.4001 102.6 100.1C102.9 100.4 103.1 100.7 103.4 101.1C105 103.2 106.3 105.5 107.3 107.9C110.5 115 112 123.3 109.8 130.8Z" fill="#B44F28"/>
<path d="M65.1998 127.1C65.0998 126.9 64.9998 126.7 64.8998 126.5C64.0998 124.3 65.7998 121.6 64.6998 119.5C63.9998 118.1 62.2 117.5 60.6 117.6C59.2 117.7 57.8998 118.3 56.8998 119.3C53.4998 122.9 57.3 129.5 60.6 131.7C61.6 132.4 62.9 132.9 64.1 132.8C65.3 132.7 66.5 131.7 66.6 130.4C66.8 129.1 65.7998 128.2 65.1998 127.1Z" fill="#B44F28"/>
<path d="M105.3 95.3003C104.4 97.6003 103.6 98.0004 102.6 98.9004C102.9 99.2004 102.3 99.5003 102.6 99.8003C100.8 102.5 98.3 103.4 96.3 103.4C93.6 103.4 90 100.7 90 100.7C90 100.7 86.3999 99.8001 83.6999 101.6C81.8999 102.8 80.8999 101.2 80.3999 100C80.6999 101.3 80.5999 103.7 78.1999 106.1C75.8999 108.4 76.3999 108.8 73.6999 108.8C70.9999 108.8 72.7999 116 69.1999 116.9C65.7999 117.8 66.3999 122.6 65.6999 120.9V120.8C65.6999 120.7 65.6001 120.6 65.6001 120.5C65.5001 120.3 65.4999 120.2 65.3999 120C64.6999 118.7 63.1 117.8 61.8 117.4C60.9 117 60.1001 116.9 60.1001 116.9C58.0001 116.5 56.7 115.9 56 115.1C55.3 114.3 55.0999 113.3 55.1999 112.1C55.1999 111.4 55.4001 110.6 55.6001 109.7C56.5001 106.1 60.1001 105.2 60.1001 105.2C60.1001 105.2 59.6001 104.7 59.1001 103.8C59.7001 103.5 60.1001 103.4 60.1001 103.4C60.1001 103.4 58.4999 101.8 58.1999 99.6001C58.3999 98.5001 59.0001 97.3002 60.1001 96.2002C64.4001 91.9002 66.3999 94.4004 66.3999 94.4004C66.3999 94.4004 66.1001 93.5004 66.1001 92.4004C66.1001 92.2004 66.0999 92.0002 66.1999 91.7002C66.3999 90.2002 67.3 88.3002 70 87.2002C76.3 84.5002 79 89 79 89C79 89 78.9999 85.4004 89.8999 85.4004C101 85.4004 105.2 89.4 105.7 93.5C105.7 94.1 105.6 94.7003 105.3 95.3003Z" fill="#974221"/>
<path d="M105.8 93.4003C105.7 94.0003 105.6 94.7002 105.3 95.3002C104.4 97.6002 103.4 99.1 102.4 100.1C100.3 102.1 98.0001 101.7 96.2001 101.7C93.5001 101.7 89.9 98.9999 89.9 98.9999C89.9 98.9999 86.3002 98.1003 83.6002 99.9003C81.4002 101.4 80.4002 99.9001 80.1002 99.2001C80.1002 99.1001 80.0001 99.0999 80.0001 98.9999C80.0001 98.9999 80.0001 99.1001 80.0001 99.2001C80.1001 100 80.5002 102.9 78.1002 104.4C75.4002 106.2 76.3002 107.1 73.6002 107.1C70.9002 107.1 72.7002 114.3 69.1002 115.2C65.7002 116.1 66.3002 122.5 65.6002 121V120.9C65.6002 120.8 65.5001 120.7 65.5001 120.6C65.4001 120.4 65.4002 120.3 65.3002 120.1C64.6002 118.8 63.0001 118.3 61.7001 118C60.8001 117.8 60.1002 117.8 60.1002 117.8C58.0002 117.4 56.7001 116.4 56.0001 115.1C55.5001 114.2 55.2001 113.1 55.2001 112.1C55.1001 110.7 55.3002 109.2 55.6002 107.9C56.2002 105.5 57.9002 104.3 59.1002 103.8C59.7002 103.5 60.1002 103.4 60.1002 103.4C60.1002 103.4 58.5001 101.8 58.2001 99.6C57.9001 98.1 58.3002 96.2003 60.1002 94.4003C63.5002 91.0003 65.5001 91.9003 66.2001 92.4003C66.4001 92.5003 66.5001 92.6 66.5001 92.6C66.5001 92.6 66.4002 92.3001 66.3002 91.7001C66.1002 90.2001 66.2002 87.0003 70.1002 85.4003C76.4002 82.7003 79.1002 87.2001 79.1002 87.2001C79.1002 87.2001 79.1001 83.6 90.0001 83.6C102.7 83.5 106.4 88.8003 105.8 93.4003Z" fill="#3E1714"/>
<path d="M73.5 116.8H73.3999C73.1999 116.7 73.0001 116.5 73.1001 116.3C73.1001 116.2 74.1001 112.6 78.6001 109.9C83.1001 107.2 87.4001 109.1 87.6001 109.2C87.8001 109.3 87.9001 109.6 87.8001 109.8C87.7001 110 87.4 110.1 87.2 110C87.2 110 83.2001 108.2 79.1001 110.7C74.9001 113.2 74.1001 116.6 74.1001 116.6C73.9001 116.7 73.7 116.8 73.5 116.8Z" fill="#431D0F"/>
<path d="M111.1 113.1C110.9 113.1 110.7 113 110.7 112.8C110.6 112.6 109.3 109 104.6 108.3C99.8001 107.6 96.6001 109.5 96.6001 109.6C96.4001 109.7 96.1 109.7 96 109.5C95.9 109.3 95.9001 109.001 96.1001 108.901C96.2001 108.801 99.5999 106.7 104.7 107.5C110 108.3 111.5 112.4 111.5 112.6C111.6 112.8 111.5 113.1 111.2 113.2C111.2 113.1 111.1 113.1 111.1 113.1Z" fill="#431D0F"/>
<path d="M83.4999 117C83.4999 118.3 82.2 119.5 80.8 119C77.9 118 80.3 113.4 82.8 115.4C83.3 115.8 83.4999 116.4 83.4999 117Z" fill="#431D0F"/>
<path d="M106.1 114.301C106.1 115.601 104.8 116.801 103.4 116.301C100.5 115.301 102.9 110.7 105.4 112.7C105.9 113.1 106.2 113.701 106.1 114.301Z" fill="#431D0F"/>
<path d="M94.3999 129.8C92.1999 129.8 90.1 128.3 90 128.2C89.8 128 89.7999 127.8 89.8999 127.6C90.0999 127.4 90.3 127.4 90.5 127.5C90.5 127.5 93.9 130.1 96.3 128.3C99 126.3 94.0999 118 91.8999 115C91.7999 114.8 91.8 114.5 92 114.4C92.2 114.3 92.5001 114.3 92.6001 114.5C93.4001 115.7 100.7 126.2 96.8 129.1C96.1 129.6 95.2999 129.8 94.3999 129.8Z" fill="#431D0F"/>
<path d="M86.8999 135.1C86.4999 135.1 86.4001 135.5 86.6001 135.8C88.2001 137.8 90.2 139.6 92.5 140C95.8 140.6 98.8999 137.8 99.8999 134.4C99.9999 134.1 99.6999 133.7 99.3999 133.8L86.8999 135.1Z" fill="#431D0F"/>
<path d="M63.3001 122.2C63.2001 122 62.9999 121.8 62.8999 121.6C62.5999 121.2 62.3001 120.8 61.8001 120.6C61.2001 120.4 60.5 120.6 60 121C58.7 122.1 58.5 124.1 59.2 125.5C59.9 126.9 61.1 127.9 62.2 128.9C62.5 129.2 62.9001 129.5 63.3001 129.5C63.9001 129.5 64.3 128.8 64.5 128.2C65.1 126.2 64.4001 124 63.3001 122.2Z" fill="#974221"/>
<path d="M254.8 124V143.3C254.8 143.8 254.4 144.2 253.9 144.4C252.7 144.8 250.8 145.3 248.5 145.3C247.4 145.3 245.4 145.2 243.1 144.4C242.5 144.2 242.1 143.7 242.1 143.2V123.9H254.8V124Z" fill="#B44F28"/>
<path d="M252.2 124.5C251.3 123.8 250.5 122.9 249.7 122.2C249.4 121.9 249.2 121.7 248.9 121.4C248.5 121.1 248.2 120.9 247.8 120.9C247.3 120.9 246.8 121.2 246.4 121.8C246.3 121.9 246.2 122 246.1 122.1C245 123.5 243.6 124.9 242 125.7V133.6C244.1 134 246.2 134.1 248.3 134.2C250.4 134.3 252.6 134.3 254.7 134V125.9C253.8 125.7 252.9 125.1 252.2 124.5Z" fill="#974221"/>
<path d="M230.8 102.4C230.8 102.2 230.7 102.1 230.7 101.9C230.6 99.9002 232.3 98.3002 231.9 96.4002C231.7 95.1002 230.6 94.2002 229.5 93.9002C228.5 93.6002 227.5 93.7001 226.6 94.3001C223.5 96.3001 224.9 102.4 226.7 105C227.3 105.8 228 106.5 228.9 106.7C229.8 106.9 230.8 106.4 231.1 105.5C231.5 104.4 231 103.4 230.8 102.4Z" fill="#B44F28"/>
<path d="M230.4 101.401C230.4 101.301 230.3 101.2 230.3 101.1C230.1 99.9003 231.2 98.7002 230.9 97.5002C230.7 96.7002 229.9 96.2003 229.1 96.1003C228.4 96.0003 227.7 96.1003 227.1 96.6003C225.1 98.1003 226.3 101.8 227.7 103.3C228.1 103.8 228.7 104.2 229.3 104.2C229.9 104.3 230.6 103.9 230.7 103.3C231 102.6 230.6 102.001 230.4 101.401Z" fill="#974221"/>
<path d="M266.3 102.5C266.3 102.3 266.3 102.2 266.3 102C266.3 99.9998 264.5 98.4999 264.7 96.5999C264.8 95.2999 265.9 94.3002 266.9 93.9002C267.8 93.6002 268.9 93.5999 269.8 94.0999C273 95.8999 272.1 102.1 270.4 104.8C269.9 105.6 269.2 106.4 268.3 106.7C267.4 107 266.4 106.6 266 105.6C265.7 104.6 266.2 103.6 266.3 102.5Z" fill="#B44F28"/>
<path d="M266.9 101.6C266.9 101.5 266.9 101.4 266.9 101.3C266.9 100.1 265.7 99.1002 265.8 97.8002C265.9 97.0002 266.6 96.4001 267.4 96.2001C268.1 96.0001 268.8 96.0003 269.4 96.4003C271.6 97.6003 270.9 101.5 269.7 103.1C269.3 103.6 268.8 104.1 268.2 104.3C267.6 104.5 266.9 104.2 266.6 103.6C266.5 102.9 266.8 102.2 266.9 101.6Z" fill="#974221"/>
<path d="M249.4 72.6001C277.6 72.6001 265.6 103.5 248.8 104.9C232.8 106.3 216 72.6001 249.4 72.6001Z" fill="#3E1714"/>
<path d="M249.3 127C243.2 126.9 235.9 125.2 232.3 119.8C230.7 117.4 230 114.5 229.9 111.7C229.7 106 230.4 100.3 231.9 94.8005C233.2 90.0005 234.8 84.3004 238.9 81.2004C241.9 78.9004 245.9 78.4002 249.7 78.5002C252.3 78.6002 254.9 78.9003 257.2 80.1003C260 81.6003 262.1 84.2003 263.4 87.1003C265.1 90.9003 266.1 95.4003 266.9 99.6003C267.8 104 268.3 108.501 268 112.901C267.8 115.701 267.1 118.601 265.4 120.901C261.9 125.601 255 127.1 249.3 127Z" fill="#B44F28"/>
<path d="M262.3 95.9998C262.2 95.9998 262.1 95.9001 262 95.8001C262 95.7001 260.9 93.2001 257.6 92.8001C254.2 92.4001 252 93.9002 252 93.9002C251.9 94.0002 251.7 94.0001 251.6 93.8001C251.5 93.7001 251.5 93.5002 251.7 93.4002C251.8 93.3002 254.1 91.8 257.7 92.2C261.4 92.6 262.6 95.3999 262.6 95.5999C262.7 95.7999 262.6 95.8998 262.4 95.9998C262.4 95.9998 262.4 95.9998 262.3 95.9998Z" fill="#3E1714"/>
<path d="M236 96.3003C235.7 96.2003 235.6 96.1004 235.7 95.9004C235.7 95.8004 236.7 92.9003 240.4 92.3003C244 91.7003 246.4 93.1002 246.5 93.2002C246.6 93.3002 246.7 93.5001 246.6 93.6001C246.5 93.7001 246.3 93.8002 246.2 93.7002C246.2 93.7002 243.9 92.4004 240.6 92.9004C237.3 93.4004 236.4 96.0001 236.4 96.1001C236.3 96.2001 236.2 96.3003 236 96.3003Z" fill="#3E1714"/>
<path d="M242.6 97.5C242.5 98.4 241.6 99.2002 240.5 98.7002C238.6 97.8002 240.5 94.8003 242.1 96.3003C242.5 96.7003 242.6 97.1 242.6 97.5Z" fill="#3E1714"/>
<path d="M258.6 97.2002C258.5 98.1002 257.6 98.9004 256.5 98.4004C254.6 97.5004 256.5 94.5 258.1 96C258.5 96.3 258.6 96.8002 258.6 97.2002Z" fill="#3E1714"/>
<path d="M249.6 106.6C248 106.6 246.7 105.4 246.6 105.3C246.5 105.2 246.5 105 246.6 104.9C246.7 104.8 246.9 104.8 247 104.9C247 104.9 249.1 106.7 250.7 105.7C252.5 104.6 249.8 99.0003 248.5 96.9003C248.4 96.7003 248.5 96.5999 248.6 96.4999C248.8 96.3999 248.9 96.5 249 96.6C249.5 97.4 253.7 104.6 250.9 106.2C250.6 106.5 250.1 106.6 249.6 106.6Z" fill="#3E1714"/>
<path d="M243.6 113.3C243.2 113.6 243.5 114.3 243.6 114.7C243.9 115.6 244.4 116.5 245.2 117.1C246.2 117.9 247.6 118.2 248.9 118.2C249.6 118.2 250.4 118.1 251.1 117.8C252 117.3 252.6 116.5 252.8 115.5C252.9 115 253 114.3 253 113.7C253 113.4 252.8 113.2 252.5 113.2C249.8 113.2 247 113.2 244.3 113.2C244.1 113.2 244 113.2 243.8 113.3C243.7 113.2 243.7 113.3 243.6 113.3Z" fill="#3E1714"/>
<path d="M232.4 94.2001C232.9 91.4001 233.3 88.6001 234.8 86.2001C235.7 84.7001 237 83.3002 238.7 82.8002C241.6 81.8002 244.7 83.3 247.1 85C250.6 87.4 253.7 89.8001 258.1 88.6001C264.1 86.9001 270.1 80.7002 267.8 74.2002C265.3 67.1002 256.4 66.5003 250.5 69.4003C248.4 70.4003 246.5 71.8 244.2 72.5C241.9 73.2 239.5 72.4003 237.3 72.9003C235 73.4003 233.2 75.3003 232.2 77.4003C230.7 80.5003 230.1 84.3001 230.2 87.7001C230.3 89.9001 230.9 92.3001 232.4 94.2001Z" fill="#3E1714"/>
<path d="M265.7 94.1001C265.7 94.1001 267.8 111 263.3 112.3C258.9 113.5 250.8 102.3 237.2 112.1C236.2 112.8 234.8 112.7 233.9 111.9C232.3 110.4 230.4 107.6 230.7 103.4C231.2 96.9004 232.1 95.2002 232.1 94.7002C229.2 102.7 226.7 114.5 231.6 122.3C233.8 125.7 236.6 128 240.2 129.4C243 130.5 246 130.8 249.1 131C253.3 131.2 257.8 130.7 261.2 128.3C267.5 124 268.4 115.6 268.1 108.8C268 104.3 267 97.4001 265.7 94.1001ZM261.7 120C261.3 121.8 259.8 124 258 124.5C256 125.2 253.7 124.5 252.1 123.1C251.2 122.3 250.4 121.4 249.5 120.6C249.2 120.3 248.9 120.2 248.7 120.2C248.3 120.2 247.9 120.5 247.6 120.9C245.6 123.5 242.5 126 239 124.2C237.6 123.5 236.6 122.1 236.4 120.6C236 117.9 237.1 115.6 239.2 113.8C241.6 111.8 244.6 111.1 247.7 110.9C250.7 110.7 253.9 110.8 256.7 112.1C259.5 113.7 262.4 116.6 261.7 120Z" fill="#3E1714"/>
<path d="M298.1 252.9L196 254.7L203.1 162.3C204.2 147.9 219.2 136.7 237.4 136.7H242L248.2 143.4L255 136.7H266.1C280.5 136.7 292.3 145.5 293.2 156.9L298.1 252.9Z" fill="#E1E1E1"/>
<path d="M297.8 240.3C298.2 254.1 298.2 267.9 298 281.7C298 284.5 295.7 286.7 293 286.8C279.5 287.2 266 287.2 252.5 286.8C250.3 286.7 248.5 284.9 248.5 282.7L248.3 262.4C245.9 269.8 243.6 277.2 241.2 284.5C241 285.2 240.7 285.9 240.2 286.3C239.6 286.8 238.7 286.8 237.9 286.8L200.7 286.7C198.1 286.7 196 284.6 196 282C195.9 270.9 195.8 259.8 195.2 248.7C195.1 246 195 242.9 197.9 241.6C198.6 241.3 199.4 241.1 200.1 241.1C207.5 240.7 215.9 243.8 223.4 244.7C231.7 245.7 240.1 246.2 248.5 246.1C256.9 246.1 265.3 245.6 273.6 244.6C275.8 244.2 296.8 241.6 297.8 240.3Z" fill="#3366CC"/>
<path d="M368 103.2C368.7 103.1 369.2 102.1 370.1 101.5C371.8 100.3 374 100.101 375.9 99.4006C378 98.7006 380.1 97.7006 381.9 96.4006C384 94.8006 385.8 92.6003 386.5 90.1003C387.2 87.7003 387 85.1003 386.5 82.6003C386.1 80.7003 385.7 78.2003 383.8 77.1003C381.4 75.8003 378.5 78.2004 376.9 79.7004C372.9 83.3004 371.2 83.4004 369.4 84.2004C369.5 82.6004 370.1 81.5003 370.1 80.1003C370.1 79.7003 370.1 79.3006 370 78.9006C369.6 77.9006 368.3 77.4005 367.4 77.8005C366.5 78.2005 365.9 79.0002 365.5 80.0002C363.4 84.2002 363.5 88.8005 361.8 93.3005C361.5 94.1005 360.9 95.6006 360.1 95.9006C362.2 98.3006 364.4 100.5 366.7 102.7C367.2 103 367.7 103.2 368 103.2Z" fill="#B44F28"/>
<path d="M183.3 259.8C183.1 260.4 183.7 261 183.9 261.8C184.3 263.3 183.8 265 183.8 266.5C183.7 268.2 183.8 269.9 184.3 271.6C184.8 273.5 185.9 275.4 187.5 276.6C189 277.8 190.9 278.3 192.8 278.6C194.2 278.9 196.2 279.2 197.4 278.2C199 276.9 198 274.1 197.5 272.6C196 268.8 196.5 267.6 196.4 266C197.5 266.5 198.1 267.2 199.1 267.6C199.4 267.7 199.7 267.8 200 267.8C200.8 267.8 201.5 267 201.5 266.3C201.5 265.6 201 264.9 200.5 264.3C198.1 261.7 194.8 260.5 192.1 258.1C191.6 257.7 190.7 256.8 190.7 256.2C188.5 257 186.3 258 184.1 259C183.6 259.2 183.4 259.5 183.3 259.8Z" fill="#B44F28"/>
<path d="M266.4 137.1C266.4 137.1 299.8 137.9 316.2 129C337.5 117.3 360.9 93 360.9 93L369.4 102.6C369.4 102.6 351.6 143 318 160.7C283.6 178.8 269.3 161.8 269.3 161.8L266.4 137.1Z" fill="#E1E1E1"/>
<path d="M231.1 138C231.1 138 160.5 133.501 183.1 263.801H200.3C200.3 263.801 202.1 214 204.8 199.5C207.5 185 221.1 175.1 221.1 175.1L231.1 138Z" fill="#E1E1E1"/>
<path d="M201.1 243C200.9 240.5 200.9 238 200.8 235.5C200.8 233 200.9 230.5 201 228C201.1 225.5 201.3 223 201.5 220.5C201.7 218 202 215.5 202.3 213C202.7 210.5 203.1 208 203.5 205.5C204 203 204.4 200.5 205.2 198.1C205.9 195.7 206.6 193.2 207.6 190.9C208.6 188.6 209.7 186.2 211.3 184.3L211.4 184.4C210 186.5 209.1 188.8 208.2 191.2C207.4 193.6 206.7 196 206.2 198.4C205.1 203.3 204.3 208.2 203.6 213.2C202.9 218.2 202.4 223.2 202 228.1C201.6 233.1 201.3 238.1 201.2 243.1L201.1 243Z" fill="#CECDCC"/>
<path d="M232 137.1L242 136.2L248.3 143.4L242.9 152.5L232 137.1Z" fill="#CECDCC"/>
<path d="M265.5 136.2H254.7L248.3 143.4L254.7 152.5L265.5 136.2Z" fill="#CECDCC"/>
<path d="M325.7 115.1V135.2C325.7 135.7 325.3 136.2 324.7 136.4C323.4 136.8 321.5 137.3 319.1 137.3C318 137.3 315.9 137.2 313.5 136.4C312.9 136.2 312.5 135.7 312.5 135.2V115.1H325.7Z" fill="#B44F28"/>
<path d="M325.7 115.1V127.7C323.6 128.4 321.5 128.7 319.3 128.7C317 128.7 314.7 128.3 312.6 127.5V115.1H325.7Z" fill="#974221"/>
<path d="M339.5 97.7002C339.6 97.6002 339.6 97.4002 339.7 97.2002C340.3 95.5002 338.9 93.4003 339.7 91.8003C340.2 90.7003 341.6 90.2002 342.8 90.2002C343.9 90.2002 344.9 90.6004 345.7 91.4004C348.4 94.1004 345.6 99.3001 343.1 101.1C342.3 101.7 341.4 102.1 340.4 102C339.4 101.9 338.5 101.2 338.4 100.2C338.3 99.3002 339.1 98.5002 339.5 97.7002Z" fill="#B44F28"/>
<path d="M298.7 97.7002C298.6 97.6002 298.6 97.4002 298.5 97.2002C297.9 95.5002 299.3 93.4003 298.5 91.8003C298 90.7003 296.6 90.2002 295.4 90.2002C294.3 90.2002 293.3 90.6004 292.5 91.4004C289.8 94.1004 292.6 99.3001 295.1 101.1C295.9 101.7 296.8 102.1 297.8 102C298.8 101.9 299.7 101.2 299.8 100.2C299.9 99.3002 299.2 98.5002 298.7 97.7002Z" fill="#B44F28"/>
<path d="M298.3 97.1001C298.3 97.0001 298.2 96.9003 298.2 96.8003C297.9 95.7003 298.8 94.6001 298.3 93.6001C298 92.9001 297.2 92.6001 296.5 92.6001C295.9 92.6001 295.2 92.8003 294.7 93.3003C293 94.9003 294.6 98.0002 296 99.2002C296.5 99.6002 297 99.8003 297.6 99.8003C298.2 99.8003 298.8 99.4003 298.8 98.8003C299 98.1003 298.5 97.6001 298.3 97.1001Z" fill="#974221"/>
<path d="M298.3 97.1001C298.3 97.0001 298.2 96.9003 298.2 96.8003C297.9 95.7003 298.8 94.6001 298.3 93.6001C298 92.9001 297.2 92.6001 296.5 92.6001C295.9 92.6001 295.2 92.8003 294.7 93.3003C293 94.9003 294.6 98.0002 296 99.2002C296.5 99.6002 297 99.8003 297.6 99.8003C298.2 99.8003 298.8 99.4003 298.8 98.8003C299 98.1003 298.5 97.6001 298.3 97.1001Z" fill="#974221"/>
<path d="M340.8 97.2002C340.8 97.1002 340.9 97.0004 340.9 96.9004C341.1 95.8004 340.2 94.7002 340.6 93.7002C340.8 93.0002 341.6 92.6001 342.3 92.6001C342.9 92.6001 343.6 92.7001 344.1 93.1001C345.9 94.6001 344.5 97.8 343.1 99C342.7 99.4 342.1 99.7002 341.6 99.7002C341 99.7002 340.4 99.3003 340.3 98.8003C340.2 98.3003 340.6 97.8002 340.8 97.2002Z" fill="#974221"/>
<path d="M319.7 124.6C316.6 124.6 313.6 123.9 310.9 122.4C304 118.6 299.9 110.8 298.7 103C297.8 97.3001 298.2 91.4003 298.9 85.7003C299.7 78.8003 300.9 73.9004 308.5 72.8004C316.9 71.6004 325.9 71.7004 334.3 73.3004C340.1 74.4004 339.8 81.1005 340.4 85.9005C341.2 92.6005 341.5 99.6004 340.1 106.3C339 111.4 336.8 116.3 333 119.8C329.2 122.9 324.5 124.6 319.7 124.6Z" fill="#B44F28"/>
<path d="M302.5 90.0002C302.4 90.0002 302.3 90.0006 302.3 89.9006C302.1 89.8006 302.1 89.5005 302.2 89.3005C302.3 89.2005 304.1 86.4006 308.8 85.4006C313.5 84.4006 316.6 87.4002 316.7 87.5002C316.9 87.7002 316.9 87.9003 316.7 88.1003C316.5 88.3003 316.3 88.3003 316.1 88.1003C316.1 88.1003 313.2 85.3004 308.9 86.2004C304.6 87.1004 302.8 89.7004 302.8 89.7004C302.8 89.9004 302.6 90.0002 302.5 90.0002Z" fill="#3E1714"/>
<path d="M337 90.0002C337.1 90.0002 337.2 90.0006 337.2 89.9006C337.4 89.8006 337.4 89.5005 337.3 89.3005C337.2 89.2005 335.4 86.4006 330.7 85.4006C326 84.4006 322.9 87.4002 322.8 87.5002C322.6 87.7002 322.6 87.9003 322.8 88.1003C323 88.3003 323.2 88.3003 323.4 88.1003C323.4 88.1003 326.3 85.3004 330.6 86.2004C334.9 87.1004 336.7 89.7004 336.7 89.7004C336.7 89.9004 336.8 90.0002 337 90.0002Z" fill="#3E1714"/>
<path d="M311.4 92.0999C311.4 93.2999 310.3 94.4002 308.9 93.9002C306.3 93.0002 308.4 88.7999 310.7 90.5999C311.2 91.0999 311.4 91.5999 311.4 92.0999Z" fill="#3E1714"/>
<path d="M332 92.0999C332 93.2999 330.9 94.4002 329.5 93.9002C326.9 93.0002 329 88.7999 331.3 90.5999C331.8 91.0999 332 91.5999 332 92.0999Z" fill="#3E1714"/>
<path d="M315.5 111C315.3 111.4 315.3 111.9 315.5 112.3C316 113.9 317.3 115 318.9 115.5C320.7 116.1 322.7 116 324.3 115.1C325.4 114.5 326.2 113.5 326.6 112.4C326.8 111.9 327.1 111.1 326.9 110.6C326.7 110.1 326.1 110.1 325.7 110.1C322.8 110.4 319.9 110.1 316.9 110.3C316.5 110.3 316.1 110.4 315.8 110.6C315.6 110.8 315.5 110.9 315.5 111Z" fill="#3E1714"/>
<path d="M320.3 104.2C318.8 104.2 317.7 103.7 317 102.8C315.4 100.7 316.5 97.1003 316.5 96.9003C316.6 96.7003 316.8 96.5 317.1 96.6C317.3 96.7 317.5 96.9001 317.4 97.2001C317.4 97.2001 316.4 100.5 317.7 102.3C318.2 103 319.1 103.4 320.3 103.4C321.4 103.4 322.2 103.1 322.7 102.4C324 100.6 322.6 96.8002 322.6 96.8002C322.5 96.6002 322.6 96.3001 322.9 96.2001C323.1 96.1001 323.4 96.1999 323.5 96.4999C323.6 96.6999 325.1 100.7 323.5 102.9C322.8 103.8 321.7 104.2 320.3 104.2Z" fill="#3E1714"/>
<path d="M342.5 63.3003L340.9 85.3003C340.3 82.5003 339.8 80.6001 338.4 79.6001C338.2 79.4001 336.3 77.3001 334.6 78.1001C325.5 82.2001 311.6 79.6004 306.6 78.9004C305.3 78.7004 304.3 79.3002 303.3 79.7002C301 80.6002 299.2 83.2003 298 85.3003C297.6 79.5003 297.4 68.1004 297.3 63.9004L342.5 63.3003Z" fill="#974221"/>
<path d="M342.6 61.7002L342.5 63.3003L340.9 85.3003L340.7 88.2002C340.7 88.2002 339.9 89.0004 339.1 84.4004C338.7 82.1004 338.3 80.4002 337.7 79.2002C337.4 78.7002 337.1 78.3 336.7 78C335.9 77.3 334.7 77.1 333.6 77.5C325.1 80.6 313 78.7 308.5 78C306.3 77.7 304.6 78.6001 303.2 80.1001C300.3 83.3001 299 88.7003 298.5 88.8003C298.3 88.8003 298.2 87.4003 298 85.3003C297.6 79.5003 297.4 68.1004 297.3 63.9004C297.3 62.9004 297.3 62.3003 297.3 62.3003L342.6 61.7002Z" fill="#0C0909"/>
<path d="M275.2 269C275.2 264.8 275.3 260.6 275.4 256.4C275.7 249.5 275.6 242.8 284.3 242.3C287.5 242.1 290.7 243 293.9 243.8C313.2 248.7 333.9 249 352.9 243.1C355.4 242.3 358.8 241.7 360.2 244C360.6 244.7 360.7 245.5 360.8 246.3C361.9 257.3 362.7 268.3 363.1 279.4C363.1 280.6 363.1 282 362.3 282.9C361.7 283.5 360.9 283.7 360.1 283.9C349.7 286.5 338.9 287.4 328.2 286.6C327.2 286.5 326.1 286.4 325.3 285.8C324.3 285 324 283.8 323.7 282.6C322.3 276.9 320.9 271.1 319.6 265.4C319.1 271.6 318.6 277.8 318 284C317.9 284.7 317.9 285.5 317.4 286.1C316.7 287 315.5 287.2 314.3 287.4C302.5 288.7 290.4 287.6 279.1 284.2C278.1 283.9 277 283.5 276.3 282.7C275.5 281.8 275.4 280.4 275.4 279.2C275.3 275.8 275.2 272.4 275.2 269Z" fill="#9A3B32"/>
<path d="M290.6 140.5C301 134.9 308.4 133.4 318.9 134.1C331.4 134.9 335.8 133.8 347 140.7C357.1 146.8 357.1 162.5 359.5 173.5C364.5 196.3 369.9 219.5 366.9 242.7C366.4 246.6 365.4 250.9 362.1 253.2C360.3 254.4 358.1 254.9 355.9 255.2C330.5 259.7 304.2 259.6 278.8 254.9C277.2 254.6 275.6 254.3 274.3 253.3C272.1 251.7 271.6 248.7 271.4 246.1C269 224.2 270 201.9 274.3 180.2C277.2 166.1 277.9 147.3 290.6 140.5Z" fill="#D7CBAC"/>
<path d="M307.4 201.9C307.4 201.9 302.5 195.5 293.7 197.7C285 199.8 285.1 203.6 285.1 203.6C285.1 203.6 285.2 210.7 293 213.2C294.8 213.8 301.1 211.8 301.1 211.8L307.4 201.9Z" fill="#B44F28"/>
<path d="M379.9 200.3C379.3 205.1 377.9 216.1 370.7 222.8C360.5 232.3 337.1 235.1 316.4 223.1C316.4 223.1 316.3 223 316.2 223C310.9 219.9 305.7 215.8 301 210.5C301 210.5 301 207.4 303 204.4C305 201.3 307.1 201.3 307.1 201.3C307.1 201.3 335.9 202.8 347.1 206.3C349.1 206.9 351.2 205.4 351.2 203.3C351.4 199.5 351.2 194.1 349.2 187.9C348.4 185.6 347.8 184.4 347.2 182.8C342.5 171.7 342.8 160 343.1 151C343.2 148.1 344.1 138.7 344.1 138.7C350.7 142.2 360 148.5 367.7 159.2C371.4 164.6 382.5 180.1 379.9 200.3Z" fill="#C3A86F"/>
<path d="M330.7 201.6C330.7 201.6 334.8 199.1 343 201.6C351.2 204.1 350.4 206.5 350.4 206.5C350.4 206.5 347.9 210.6 339.7 210.6C331.5 210.6 334.8 210.6 334.8 210.6L330.7 201.6Z" fill="#B44F28"/>
<path d="M337.2 210.7C337.2 211 337 211.3 336.9 211.6C336.6 212.1 336.2 212.6 335.7 212.9C334.8 213.6 333.9 214.4 333 215C331.2 216.4 329.3 217.6 327.3 218.7C323.8 220.6 320.1 222.1 316.3 223C316.3 223 316.2 222.9 316.1 222.9C317.7 222.4 319.4 221.8 320.9 221.1C323 220.2 325 219.2 326.9 218.1C328.8 216.9 330.7 215.7 332.5 214.3C333.4 213.6 334.3 212.9 335.1 212.2C335.5 211.8 335.9 211.5 336.3 211.1C336.5 210.9 336.6 210.7 336.8 210.5C336.9 210.3 337 210 337.1 209.7C337.2 210.1 337.3 210.4 337.2 210.7Z" fill="#A58756"/>
<path d="M287 203.4C286.8 199.6 287.1 194.2 289 188C289.8 185.7 290.4 184.5 291 182.9C295.7 171.8 295.4 160.1 295.1 151.1C295 148.2 294.1 138.8 294.1 138.8C287.5 142.3 278.2 148.6 270.5 159.3C266.7 164.6 255.6 180 258.2 200.3C258.8 205.1 260.2 216.1 267.4 222.8C280.2 234.8 309.4 231.3 337.1 210.5C337.1 210.5 337.1 207.4 335.1 204.4C333.1 201.3 331 201.3 331 201.3C331 201.3 291 203.3 286.9 208.5V203.4H287Z" fill="#C3A86F"/>
<path d="M328.1 139.8C327.5 139.9 326.9 139.9 326.3 140C323.7 140.3 321 140.5 318.4 140.5C314.8 140.4 311.2 139.8 308.1 138.3C307.1 137.9 306.2 137.3 305.5 136.6C304.6 135.6 305 134.5 305.4 133.3C306.1 131.2 306.7 131 307.8 130.6C310 129.6 313 130.9 315.6 131.1C319.4 131.4 323.3 131.4 327.1 131.2C328.8 131.1 330.6 130.9 331.9 131.8C333.1 132.6 333.3 134.1 333.3 135.4C333.3 136.5 333.1 137.7 332.2 138.5C331.2 139.4 329.6 139.6 328.1 139.8Z" fill="#C3A86F"/>
<path opacity="0.5" d="M312.6 99.4004H306.1C303.9 99.4004 302.1 97.6004 302.1 95.4004V92.5C302.1 90.3 303.9 88.5 306.1 88.5H312.6C314.8 88.5 316.6 90.3 316.6 92.5V95.4004C316.6 97.6004 314.8 99.4004 312.6 99.4004Z" fill="#9A3B32"/>
<path d="M313 100.3H305.8C303.3 100.3 301.3 98.3003 301.3 95.8003V92.2002C301.3 89.7002 303.3 87.7002 305.8 87.7002H313C315.5 87.7002 317.5 89.7002 317.5 92.2002V95.8003C317.6 98.3003 315.5 100.3 313 100.3ZM305.8 89.5C304.3 89.5 303.1 90.7002 303.1 92.2002V95.8003C303.1 97.3003 304.3 98.5 305.8 98.5H313C314.5 98.5 315.7 97.3003 315.7 95.8003V92.2002C315.7 90.7002 314.5 89.5 313 89.5H305.8Z" fill="#9A3B32"/>
<path opacity="0.5" d="M333.9 99.4004H327.4C325.2 99.4004 323.4 97.6004 323.4 95.4004V92.5C323.4 90.3 325.2 88.5 327.4 88.5H333.9C336.1 88.5 337.9 90.3 337.9 92.5V95.4004C337.9 97.6004 336.1 99.4004 333.9 99.4004Z" fill="#9A3B32"/>
<path d="M334.3 100.3H327.1C324.6 100.3 322.6 98.3003 322.6 95.8003V92.2002C322.6 89.7002 324.6 87.7002 327.1 87.7002H334.3C336.8 87.7002 338.8 89.7002 338.8 92.2002V95.8003C338.8 98.3003 336.8 100.3 334.3 100.3ZM327.1 89.5C325.6 89.5 324.4 90.7002 324.4 92.2002V95.8003C324.4 97.3003 325.6 98.5 327.1 98.5H334.3C335.8 98.5 337 97.3003 337 95.8003V92.2002C337 90.7002 335.8 89.5 334.3 89.5H327.1Z" fill="#9A3B32"/>
<path d="M322.8 95.8003C322.3 95.8003 321.9 95.4004 321.9 94.9004C321.9 94.5004 321.2 94 320.1 94C319 94 318.3 94.5004 318.3 94.9004C318.3 95.4004 317.9 95.8003 317.4 95.8003C316.9 95.8003 316.5 95.4004 316.5 94.9004C316.5 93.4004 318.1 92.2002 320.1 92.2002C322.1 92.2002 323.7 93.4004 323.7 94.9004C323.7 95.4004 323.3 95.8003 322.8 95.8003Z" fill="#9A3B32"/>
</svg>
