<svg width="473" height="513" viewBox="0 0 473 513" fill="none" xmlns="http://www.w3.org/2000/svg">
<path opacity="0.1" d="M203 507.9C199.3 505.5 196.6 501.8 194.1 498C181.1 478.5 159.5 447.7 148.5 427.5C131 395.1 127.2 372.8 110.9 339.7C85.8999 289 63.5001 236.8 47.1001 182.5C36.4001 147.2 28.1999 110.4 31.8999 73.7C33.5999 57.1 38.7001 39.1001 52.6001 29.8001C66.1001 20.7001 83.8999 22.4 99.8999 25C128.4 29.7 157.6 36.9001 180.4 54.6001C214.4 81.1001 228.2 126.1 232.8 169C237.4 211.9 234.1 232.5 244.4 274.3C258.6 240.3 275.2 229.8 298.1 200.9C321 172 351.8 148.2 387.6 139.6C411.7 133.8 440.1 136.4 457 154.6C473 171.8 474.5 197.9 471.2 221.2C462.5 281.8 427.6 335.8 386.4 381.2C360.2 410 331.2 436.3 299.9 459.4C282.5 472.3 227.5 520.1 204.5 508.5C204 508.6 203.5 508.3 203 507.9Z" fill="#DECEAC"/>
<path d="M97.1003 69.9002C86.5003 85.7002 103.9 96.5002 98.6003 106.9C95.1003 113.6 130.1 111.7 138 88.2C146.1 63.9 139.4 78.0001 144.8 66.0001C149.5 55.4001 112.1 52.8002 97.1003 69.9002Z" fill="#E7DDC5"/>
<path d="M238 71.4001C237 79.6001 232.6 107.3 208.9 129C192.4 144 174.7 150.6 159.6 152.9C156.1 153.4 152.7 153.7 149.5 153.9C137.3 154.4 127.8 152.2 123.7 150.4L131.2 122.2C131.2 122.2 138.3 121.6 148.5 119.3C149.5 119.1 150.6 118.8 151.6 118.6C157.8 117.1 164.9 115.1 172 112.3C173 111.9 174.1 111.5 175.1 111.1C177.3 110.2 179.5 109.2 181.6 108.1C205.1 96.4001 220.4 66.2 220.4 66.2L238 71.4001Z" fill="#3E1714"/>
<path d="M194.5 511.6H162.5C162.5 511.6 149.5 422.6 149.5 415.6C149.5 411.2 138.8 365.4 130.9 331.9C126.2 312.1 122.5 296.6 122.5 296.6L123.1 341.5L125.5 510.6H90.4999C90.4999 510.6 77 451.3 67.1 393C65.7 384.9 64.3999 376.9 63.1999 369.1C61.7999 359.6 60.4999 350.3 59.4999 341.6C56.1999 313.7 57.5 292.2 60.1 276.5C63.9 254 70.4999 243.6 70.4999 243.6L166.5 247.6C166.5 247.6 169.7 256.3 174.2 268.9C183.6 295.3 198.5 339 200.5 356.6C200.8 359.4 201 363.6 201 368.9C201.4 409.3 194.5 511.6 194.5 511.6Z" fill="#A84036"/>
<path d="M155.5 301.6L130.9 331.9L123.1 341.5L73.5002 402.6L67.1003 393C65.7003 384.9 64.4002 376.9 63.2002 369.1L94.5002 342.6C94.5002 342.6 84.5002 320.6 92.5002 317.6C100.5 314.6 108.5 315.6 110.5 311.6C112.5 307.6 111.5 295.6 114.5 292.6C117.5 289.6 129 278.4 138.5 282.6C156.5 290.6 155.5 301.6 155.5 301.6Z" fill="#9A3B32"/>
<path d="M174.2 268.8C167.8 270.9 154.9 273.5 129.5 274.5C100 275.8 74.8001 276.2 60.1001 276.4C63.9001 253.9 70.5 243.5 70.5 243.5L166.5 247.5C166.5 247.6 169.7 256.2 174.2 268.8Z" fill="#9A3B32"/>
<path d="M72.5003 224.6C73.7003 208.5 59.6003 181.7 60.5003 165.6C61.5003 148.6 61.6003 149.1 63.5003 136.6C65.1003 125.8 77.8004 125.2 88.8004 123.3C93.0004 122.5 97.3004 121.9 101.6 121.5C113.2 120.4 124.8 120.4 136.4 121.7C137.8 121.9 139.2 122 140.7 122.2C146.7 123 153.1 124.4 157.6 128.5C162.8 133.5 164.2 141.2 165.1 148.4C168.4 173.4 166.6 198.6 163.6 220.6C162.2 230.8 174.8 248.3 175.6 258.6C137.3 258.7 98.7003 254.5 60.5003 254.6C60.8003 245.1 71.8003 234.1 72.5003 224.6Z" fill="#3E1714"/>
<path d="M236.9 196.9C226.7 197.1 218.1 190.6 217.2 182.1C216.9 179.1 217.6 176.2 219.1 173.6C220.1 171.9 220.7 170.1 221 168.3C221.2 167 220 165.9 218.4 166L176.9 168.4C171.5 168.7 166.8 165.3 166.6 160.8L160.9 62.3C160.6 57.8 164.8 53.7999 170.3 53.4999L211.8 51.1C213.3 51 214.4 49.7999 214.1 48.4999C213.6 46.6999 212.7 45.0999 211.6 43.4999C209.9 41.0999 208.8 38.3 208.8 35.3C208.6 26.8 216.5 19.3001 226.6 18.4001C237.9 17.3001 247.6 24.3 248.2 33.6C248.4 36.5 247.6 39.1999 246.2 41.6999C245.2 43.2999 244.6 45.1001 244.3 46.9001C244.1 48.2001 245.3 49.2999 246.9 49.1999L288.4 46.8C293.8 46.5 298.5 49.9001 298.7 54.4001L304.4 152.9C304.7 157.4 300.5 161.4 295 161.7L253.5 164.1C252 164.2 250.9 165.4 251.2 166.7C251.7 168.4 252.5 170.1 253.7 171.6C255.4 173.9 256.4 176.5 256.6 179.4C257.1 188.6 248.2 196.7 236.9 196.9Z" fill="#3366CC"/>
<path d="M232.4 122.6C241.568 122.6 249 115.168 249 106C249 96.8321 241.568 89.4001 232.4 89.4001C223.232 89.4001 215.8 96.8321 215.8 106C215.8 115.168 223.232 122.6 232.4 122.6Z" fill="#F8C23A"/>
<path d="M233.4 115.2H231.6C231.5 115.2 231.3 115.2 231.2 115.1C231.1 115 231.1 114.9 231.1 114.8V113.3C230.2 113.2 229.3 113 228.6 112.7C227.8 112.4 227.2 112 226.7 111.5C226.4 111.3 226.3 111 226.3 110.7C226.3 110.4 226.4 110.2 226.6 110L228.2 108.8C228.4 108.7 228.6 108.6 228.8 108.6C229 108.6 229.2 108.7 229.4 109C229.8 109.4 230.3 109.7 230.9 109.9C231.4 110.1 232 110.2 232.6 110.2C233.1 110.2 233.6 110.1 233.9 109.9C234.2 109.7 234.4 109.4 234.4 109.1C234.4 108.8 234.3 108.6 234.1 108.4C233.9 108.2 233.5 108.1 232.9 107.9L230.3 107.3C229.1 107 228.2 106.5 227.6 105.8C227 105.1 226.6 104.2 226.6 103.2C226.6 102.1 227 101.1 227.8 100.3C228.6 99.5 229.7 99 231.1 98.8V97.3C231.1 97.2 231.1 97.1 231.2 97C231.3 96.9 231.4 96.9001 231.6 96.9001H233.4C233.5 96.9001 233.7 96.9 233.7 97C233.7 97.1 233.8 97.2 233.8 97.3V98.8C234.5 98.9 235.2 99.1 235.8 99.3C236.4 99.6 236.9 99.9 237.4 100.3C237.7 100.5 237.8 100.8 237.8 101C237.8 101.2 237.7 101.4 237.6 101.6L236.2 103C236 103.2 235.8 103.2 235.6 103.2C235.4 103.2 235.1 103.1 234.9 102.9C234.5 102.6 234.1 102.4 233.6 102.2C233.1 102 232.7 102 232.2 102C231.7 102 231.3 102.1 231 102.3C230.7 102.5 230.5 102.7 230.5 103C230.5 103.2 230.6 103.4 230.8 103.6C231 103.8 231.3 103.9 231.7 104L234.3 104.6C235.7 104.9 236.8 105.5 237.5 106.2C238.2 106.9 238.5 107.8 238.5 108.9C238.5 110 238.1 111 237.2 111.8C236.3 112.6 235.2 113.2 233.8 113.4V114.9C233.8 115 233.8 115.1 233.7 115.2C233.6 115.3 233.5 115.2 233.4 115.2Z" fill="#D99D08"/>
<path d="M194.8 115.5C195.6 115.3 196 114.2 197 113.4C198.7 111.9 201.1 111.2 203.1 110.2C205.3 109.1 207.5 107.7 209.4 106C211.6 104 213.3 101.5 214 98.8001C214.6 96.3001 214.3 93.7002 213.6 91.4002C213.1 89.6002 212.5 87.2 210.5 86.5C207.9 85.7 205 88.7 203.3 90.5C199.2 94.9 197.5 95.3002 195.5 96.4002C195.6 94.8002 196.1 93.6 196.1 92.2C196.1 91.8 196.1 91.4 195.9 91C195.4 90.1 194 89.9002 193.1 90.4002C192.2 90.9002 191.6 91.9002 191.2 92.9002C189.2 97.5002 189.5 102 187.9 106.8C187.6 107.7 187 109.3 186.2 109.7C188.5 111.6 190.9 113.4 193.4 115.1C194 115.6 194.4 115.7 194.8 115.5Z" fill="#B44F28"/>
<path d="M70.7002 164.8C79.3002 171.3 117.3 186.5 158.5 163.6C186.5 148 197.2 122.1 200.1 114.3L184.2 105.2C184.2 105.2 162.4 131.1 136.8 137C111.2 143 84.5002 139.1 84.5002 139.1L70.7002 164.8Z" fill="#3E1714"/>
<path d="M136.4 121.7C135.9 125 134.4 128 132.2 130.2C130 132.5 127 134.1 123.7 134.6C122.9 134.7 122.1 134.5 121.6 133.9C119.8 132 118.5 129.6 118.4 126.9L116.4 132.5C115.9 133.8 114.5 134.6 113.2 134.3C107.2 132.9 102.6 127.8 101.7 121.5C113.2 120.3 124.9 120.4 136.4 121.7Z" fill="#DECEAC"/>
<path d="M127.5 124.1C127.5 124.2 127.5 124.3 127.5 124.4V124.5C127.4 124.6 127.3 124.7 127.1 124.7C121.4 126.4 114.9 125.7 109.6 123.1C109.5 123 109.4 123 109.3 122.9C109.2 122.8 109.2 122.6 109.3 122.5C109.6 120.2 109.9 117.9 110.2 115.6C110.5 113.7 110.7 111.8 111 109.9C111.3 107.8 111.6 105.7 111.9 103.6C112 102.5 112.2 101.5 112.3 100.4C112.4 99.7002 112.2 98.0002 113.2 98.1002C118.5 98.6002 123.7 99.1002 129 99.6002C128.7 105.2 128.4 110.8 128.1 116.5C127.8 119 127.6 121.6 127.5 124.1Z" fill="#B44F28"/>
<path d="M127.9 116.5C127.7 116.6 127.5 116.6 127.2 116.7C123.1 117.8 118.8 118 114.6 117.1C113 116.7 111.5 116.2 110 115.6C110.3 113.7 110.5 111.8 110.8 109.9C111.1 107.8 111.4 105.7 111.7 103.6C111.8 102.5 112 101.5 112.1 100.4C112.2 99.7002 112 98.0002 113 98.1002C118.3 98.6002 123.5 99.1002 128.8 99.6002C128.5 105.2 128.2 110.9 127.9 116.5Z" fill="#974221"/>
<path d="M144.4 98.4002C142.1 104.1 137.3 108.8 131.7 111.4C130.5 111.9 129.3 112.4 128.1 112.7C124.4 113.8 120.4 114 116.6 113.1C109.9 111.5 104.2 106.9 100.6 101C99.5 99.3001 98.6999 97.4002 97.9999 95.6002C96.1999 90.8002 95.6 85.7 96.1 80.7C96.1 80.5 96.0998 80.3002 96.1998 80.1002C97.5998 68.5002 105.1 58.2 118.5 56.7C124.5 56 130.8 57.6001 135.4 61.3001C137.1 62.7001 138.6 64.4 139.8 66.2C140 66.5 140.3 66.9001 140.5 67.3001C141.9 69.6001 143 72.1002 143.9 74.6002C146.6 82.3002 147.5 90.9002 144.4 98.4002Z" fill="#B44F28"/>
<path d="M98.8 90.2C98.7 90 98.6 89.8001 98.6 89.6001C98 87.2001 100 84.7001 99.1 82.4001C98.5 80.9001 96.7 80.1001 95.1 80.1001C93.7 80.1001 92.1999 80.5 91.1999 81.5C87.3999 84.9 90.6998 92.0001 93.8998 94.6001C94.8998 95.4001 96.0998 96.1 97.3998 96C98.6998 96 99.9999 95.1 100.2 93.8C100.3 92.5 99.3 91.4 98.8 90.2Z" fill="#B44F28"/>
<path d="M143.3 61.6999C142.2 63.9999 141.3 64.3 140.2 65.1C140.4 65.4 139.9 65.6999 140.1 65.9999C138 68.5999 135.3 69.3 133.2 69.1C130.4 68.8 126.9 65.6999 126.9 65.6999C126.9 65.6999 123.3 64.3999 120.3 65.9999C118.3 66.9999 117.5 65.3 117.1 64.1C117.2 65.5 117 67.9 114.3 70.1C111.7 72.2 112.2 72.7001 109.4 72.4001C106.6 72.1001 107.8 79.7 103.9 80.3C100.3 80.8 100.5 85.9 99.8999 84.1V83.9999C99.8999 83.8999 99.9 83.7999 99.8 83.6999C99.8 83.4999 99.7001 83.2999 99.6001 83.1999C99.0001 81.7999 97.3999 80.7999 96.1999 80.1999C95.2999 79.6999 94.5 79.4999 94.5 79.4999C92.4 78.8999 91.0999 78.1999 90.3999 77.1999C89.6999 76.2999 89.6 75.1999 89.8 73.9999C89.9 73.2999 90.2 72.4 90.5 71.6C91.8 68 95.6001 67.4001 95.6001 67.4001C95.6001 67.4001 95.0999 66.8001 94.6999 65.9001C95.3999 65.7001 95.8 65.6 95.8 65.6C95.8 65.6 94.2999 63.7999 94.1999 61.4999C94.4999 60.3999 95.2 59.2999 96.5 58.1999C101.3 54.1999 103.2 56.9999 103.2 56.9999C103.2 56.9999 103 56.1001 103.1 54.9001C103.1 54.7001 103.2 54.4999 103.2 54.1999C103.6 52.6999 104.7 50.8001 107.6 49.9001C114.4 47.7001 116.7 52.6 116.7 52.6C116.7 52.6 117.1 48.8999 128.2 49.9999C139.6 51.0999 143.6 55.6 143.7 59.8C143.8 60.4 143.6 61.0999 143.3 61.6999Z" fill="#974221"/>
<path d="M143.9 59.7999C143.8 60.3999 143.5 61.0998 143.3 61.6998C142.2 63.9998 141 65.3999 139.9 66.2999C137.5 68.0999 135.3 67.4999 133.4 67.2999C130.6 66.9999 127.1 63.9 127.1 63.9C127.1 63.9 123.5 62.5998 120.5 64.1998C118.1 65.4998 117.2 63.8998 116.9 63.1998C116.9 63.0998 116.9 63.0999 116.8 62.9999C116.8 62.9999 116.8 63.0998 116.8 63.1998C116.9 64.0998 116.9 66.9999 114.4 68.2999C111.4 69.8999 112.3 70.9 109.5 70.6C106.7 70.3 107.9 77.8999 104 78.4999C100.4 78.9999 100.4 85.7 99.8999 84.1V83.9999C99.8999 83.8999 99.9 83.7998 99.8 83.6998C99.8 83.4998 99.7001 83.2998 99.6001 83.1998C99.0001 81.7998 97.4001 81.0999 96.1001 80.7999C95.2001 80.4999 94.3999 80.4999 94.3999 80.4999C92.2999 79.8999 91.0999 80.0998 90.3999 78.6998C89.9999 77.6998 88.3999 74.7998 88.3999 73.6998C88.3999 72.1998 88.8999 70.9998 89.3999 69.6998C90.1999 67.2998 93.4 66.4999 94.7 65.9999C95.4 65.7999 95.8 65.6998 95.8 65.6998C95.8 65.6998 94.3 63.9 94.2 61.6C94.1 60 94.6 58.1 96.7 56.4C100.6 53.2 102.5 54.3 103.2 54.9C103.4 55 103.4 55.1998 103.4 55.1998C103.4 55.1998 103.3 54.7999 103.3 54.2999C103.2 52.6999 103.6 49.4998 107.8 48.1998C114.6 45.9998 116.9 50.9 116.9 50.9C116.9 50.9 117.3 47.1999 128.4 48.2999C141.7 49.3999 144.9 55.0999 143.9 59.7999Z" fill="#E7DDC5"/>
<path d="M108.4 80.6001H108.3C108.1 80.5001 107.9 80.3001 108 80.0001C108.1 79.9001 109.4 76.3002 114.2 73.9002C119.1 71.5002 123.3 73.9001 123.5 74.0001C123.7 74.1001 123.8 74.4001 123.7 74.6001C123.6 74.8001 123.3 74.9001 123.1 74.8001C123.1 74.8001 119.1 72.5 114.7 74.7C110.2 76.9 108.9 80.2 108.9 80.2C108.8 80.5 108.6 80.6001 108.4 80.6001Z" fill="#431D0F"/>
<path d="M147.5 80.5C147.3 80.5 147.101 80.3 147.101 80.2C147.101 80 146 76.2 141.2 75C136.3 73.8 132.9 75.5 132.8 75.5C132.6 75.6 132.3 75.5001 132.2 75.3001C132.1 75.1001 132.2 74.8 132.4 74.7C132.6 74.6 136.2 72.8001 141.4 74.1001C146.7 75.4001 147.9 79.8 147.9 80C148 80.2 147.801 80.5001 147.601 80.6001C147.601 80.5001 147.5 80.5 147.5 80.5Z" fill="#431D0F"/>
<path d="M118.7 81.7C118.5 83 117.2 84.2 115.7 83.5C112.9 82.2 115.7 77.7 118.1 80C118.6 80.5 118.8 81.2 118.7 81.7Z" fill="#431D0F"/>
<path d="M142.3 81.2C142.1 82.5 140.8 83.7 139.3 83C136.5 81.7 139.3 77.2 141.7 79.5C142.1 79.9 142.3 80.6 142.3 81.2Z" fill="#431D0F"/>
<path d="M128.7 95.9002C126.4 95.7002 124.5 93.9001 124.3 93.8001C124.1 93.6001 124.1 93.3001 124.3 93.1001C124.5 92.9001 124.8 92.9001 125 93.1001C125 93.1001 128.3 96 130.9 94.5C133.9 92.7 129.6 83.7002 127.7 80.4002C127.6 80.2002 127.6 79.9001 127.9 79.8001C128.1 79.7001 128.4 79.7 128.5 80C129.2 81.3 135.7 92.7001 131.4 95.3001C130.4 95.8001 129.5 96.0002 128.7 95.9002Z" fill="#431D0F"/>
<path d="M120.4 100.6C120 100.6 119.8 101 120 101.3C121.4 103.5 123.4 105.5 125.7 106.1C129 107 132.5 104.5 133.8 101.1C133.9 100.8 133.7 100.4 133.3 100.4L120.4 100.6Z" fill="#431D0F"/>
<path d="M97.3998 85.1C97.2998 84.9 97.1999 84.7 96.9999 84.4C96.6999 83.9 96.3998 83.4999 95.8998 83.1999C95.2998 82.8999 94.5999 83.0999 93.9999 83.4999C92.5999 84.5999 92.0999 86.4999 92.6999 87.9999C93.2999 89.4999 94.3999 90.5999 95.4999 91.7999C95.7999 92.0999 96.1 92.4999 96.6 92.4999C97.2 92.4999 97.6998 91.8999 97.8998 91.2999C98.7998 89.2999 98.2998 87 97.3998 85.1Z" fill="#974221"/>
<path d="M164.5 161.9C157.8 167.6 150.3 172.3 142.1 175.6C138 177.3 133.7 178.6 129.4 179.4C125 180.3 120.6 180.7 116.1 180.6C107.2 180.5 98.5001 178.3 90.1001 175.9L77.5 172.1C73.3 170.8 69.1 169.5 65 167.9C69.2 169.1 73.4 170.2 77.7 171.2C82 172.2 86.1999 173.3 90.3999 174.4C94.5999 175.5 98.9001 176.5 103.1 177.3C105.2 177.7 107.4 178 109.5 178.3C110.6 178.4 111.7 178.5 112.7 178.6L114.3 178.7H115.9C124.5 178.9 133.1 177.2 141.3 174.2C149.6 171.1 157.3 166.9 164.5 161.9Z" fill="#230D0C"/>
<path d="M92 135.1C94.4 136.2 96.8999 137.2 99.3999 138C101.9 138.8 104.5 139.5 107.1 140C112.3 141 117.6 141.3 122.8 140.5L123.8 140.4L124.8 140.2L126.7 139.8C128 139.5 129.2 139.1 130.5 138.7C133 137.9 135.6 137.1 138.1 136.3C140.6 135.5 143.1 134.6 145.6 133.7C148.1 132.8 150.6 131.8 153 130.8C148.3 133.3 143.3 135.2 138.3 137.1C135.8 138 133.3 138.8 130.7 139.7C129.4 140.1 128.2 140.5 126.9 140.9L124.9 141.4L123.9 141.6L122.9 141.7C117.6 142.5 112.1 142.2 106.9 141C101.7 139.6 96.6 137.7 92 135.1Z" fill="#230D0C"/>
<path d="M163.1 226.4C162.3 227.9 161 229.1 159.6 230C158.2 231 156.6 231.7 155 232.2C151.8 233.3 148.3 233.6 145 233.6L142.5 233.5C141.7 233.5 140.8 233.3 140 233.3C138.3 233.2 136.7 232.9 135 232.6C131.7 232 128.4 231.1 125.2 230C122 228.8 119 227.4 116 225.8C113 224.2 110.2 222.4 107.4 220.5C104.6 218.6 101.9 216.6 99.2 214.8C97.8 213.9 96.3999 213 94.8999 212.4C93.3999 211.8 91.7001 211.5 90.1001 212.2C90.8001 211.8 91.7 211.6 92.5 211.5C93.4 211.5 94.2 211.7 95 211.9C96.6 212.4 98.2001 213.1 99.6001 213.9C102.5 215.5 105.3 217.4 108.2 219.1C113.8 222.6 119.7 225.8 125.8 228C128.9 229.1 132 230 135.3 230.7C136.9 231 138.5 231.4 140.2 231.5C141.8 231.8 143.5 231.9 145.1 232C148.4 232.1 151.7 232 154.8 231.2C156.4 230.8 157.9 230.3 159.4 229.5C160.1 229.1 160.8 228.6 161.4 228.1C162 227.7 162.6 227.1 163.1 226.4Z" fill="#230D0C"/>
<path d="M159.3 343.4C158.1 346.4 156 349.1 155.7 352.4C155.6 353.6 155.6 355 154.9 356L154.8 356.1C154 357 152.8 357.1 151.6 357.1C148 357.2 144.4 356.6 141.1 355.3C139.3 354.6 137.5 353.7 135.5 353.3C132 352.7 128.3 353.9 124.9 352.9C122.2 352.1 120.1 350.1 117.7 348.7C115 347.2 111.9 346.5 108.8 346.7C106.8 346.9 104.5 347.2 103.2 345.8C102.6 345.2 102.4 344.3 101.8 343.7C101.2 343 100.3 342.7 99.7001 342.1C98.6001 341.1 98.1001 339.7 97.7001 338.3C96.3001 333.6 95.2002 328.3 97.8002 324.1C100.5 319.8 105.9 318.5 110.4 316.2C112.5 315.1 114.6 313.7 115.3 311.4C115.8 309.9 115.5 308.2 115.5 306.6C115.5 305 115.6 303.4 116 301.8C117.9 293.6 125.3 287.7 134.1 287.9C134.1 287.9 134.1 287.9 134.2 287.9C139.8 288.1 145.1 290.4 149.6 293.7C152.7 296 155.6 298.8 157 302.4C159 307.5 157.8 313.3 155.4 318.2C154.6 320 153.6 321.9 154.3 323.7C154.7 324.7 155.5 325.4 156.2 326.1C160.2 330.7 161.5 337.6 159.3 343.4Z" fill="#0C0909"/>
<path d="M144.6 354.9C144.5 355.1 144.4 355.4 144.2 355.5C143.9 355.8 143.3 356 142.8 356.2C137.7 357.7 132.2 358.1 127 357.1C121.8 356 116.8 353.5 113.2 349.5C112.7 349 112.2 348.4 112 347.7C111.1 345.2 114.3 343.7 116.2 343.2C117.5 342.9 118.8 342.8 120.1 342.7C121.1 342.6 118.6 342.3 119.4 341.6C119.9 341.2 118.7 340.2 118.4 339.6C117.5 337.7 116.5 339.4 121.4 334.6C121.6 334.4 121.7 334.3 121.9 334.1C122.1 333.9 122.3 333.8 122.4 333.6C124.9 331.1 126.7 330.3 127.6 326.9C131.4 327.8 135.1 328.8 138.9 329.7C138.4 331.8 140.9 332.4 140.4 334.6C140 336.1 137.6 339.8 136.3 340.9C136.3 340.9 136.2 340.9 136.2 341C136.1 341.1 135.9 341.2 135.8 341.3C135.2 341.9 134.7 342.4 134.4 342.6C131.4 344.6 132.1 345.3 133.4 346.6C135.5 348.8 143.1 350.9 144.3 353.7C144.5 354.1 144.7 354.5 144.6 354.9Z" fill="#B44F28"/>
<path d="M140.5 334.6C140.1 336.1 137.7 339.8 136.4 340.9C135.7 340.9 134.9 340.9 134.2 340.8C132.9 340.6 131.6 340.3 130.4 339.9C127.1 338.8 124 337 121.5 334.6C121.7 334.4 121.8 334.3 122 334.1C122.2 333.9 122.4 333.8 122.5 333.6C125 331.1 126.8 330.3 127.7 326.9C131.5 327.8 135.2 328.8 139 329.7C138.5 331.9 141 332.5 140.5 334.6Z" fill="#974221"/>
<path d="M136.3 338.9C135 338.6 133.8 338.2 132.6 337.7C125.8 334.9 120.5 328.9 118.5 321.8C114.8 308.7 122.9 293.7 137.1 292.8C142.9 292.4 148.9 294.6 153.1 298.7C154 299.5 154.8 300.5 155.1 301.6C155.5 303 155 304.5 154.7 305.9C153.6 311.6 155.7 317.4 155.2 323.1C154.8 327.2 153 331.2 150.1 334.3C148 336.5 145.2 338.3 142.2 338.9C140.3 339.4 138.3 339.3 136.3 338.9Z" fill="#B44F28"/>
<path d="M119.7 318.3C119.7 318.1 119.701 318 119.601 317.8C119.601 315.9 121.6 314.2 121.3 312.3C121.1 311 119.9 310.1 118.7 309.8C117.6 309.5 116.4 309.6 115.4 310.1C111.8 312 113 318.1 115 320.7C115.6 321.5 116.4 322.3 117.4 322.5C118.4 322.7 119.6 322.3 120 321.3C120.4 320.3 119.9 319.3 119.7 318.3Z" fill="#B44F28"/>
<path d="M156.4 302.8C155.7 304.9 153.201 308.2 147.101 307.5C144.401 307.2 141.201 304.7 140.301 302.1C137.701 307.9 133.301 311.5 129.801 312.6C122.001 315.2 119.4 310.7 119 309.8C118 307.6 116.9 304.5 116.9 302.1C119.1 294 126.3 289.9 135 290.5C135 290.5 135.001 290.5 135.101 290.5C139.701 291 144.1 292.9 148 295.5C151.3 297.6 156.3 302.3 156.4 302.8Z" fill="#974221"/>
<path d="M155.801 301.8C155.401 302.6 154.901 303.3 154.301 303.9C152.201 305.9 149.001 306.2 146.101 305.7C143.401 305.2 140.7 303.8 139.7 301.3C138.1 305.7 132.5 310.3 129 311.6C120.1 314.9 118.1 309.7 117.7 308.8C116.7 306.6 116.1 304.2 115.9 301.8C117.8 293.6 125.2 287.7 134 287.9C134 287.9 134.001 287.9 134.101 287.9C138.701 288.3 143.201 290 147.101 292.5C150.401 294.5 153.5 297.1 155.2 300.6C155.5 301 155.601 301.4 155.801 301.8Z" fill="#0C0909"/>
<path d="M129.4 310.2C129.3 310.2 129.3 310.1 129.2 310.1C129.1 309.9 129.101 309.7 129.301 309.6C129.401 309.5 131.901 307.8 136.101 308.5C140.401 309.2 142 312.7 142 312.9C142.1 313.1 142.001 313.3 141.801 313.4C141.601 313.5 141.401 313.4 141.301 313.2C141.301 313.2 139.8 309.9 135.9 309.3C132 308.6 129.701 310.2 129.601 310.2C129.601 310.2 129.5 310.2 129.4 310.2Z" fill="#3E1714"/>
<path d="M158.3 317.9C158.1 317.9 158 317.8 158 317.6C158 317.5 157.2 314.4 153.4 313.5C149.5 312.5 146.8 313.8 146.8 313.9C146.6 314 146.4 313.9 146.3 313.7C146.2 313.5 146.3 313.3 146.5 313.2C146.6 313.1 149.501 311.7 153.601 312.8C157.801 313.9 158.7 317.3 158.7 317.5C158.7 317.7 158.6 317.9 158.4 317.9C158.3 317.9 158.3 317.9 158.3 317.9Z" fill="#3E1714"/>
<path d="M135.901 315C135.201 315.8 133.801 315.9 133.101 314.8C131.801 312.7 135.701 311 136.201 313.5C136.401 314.1 136.201 314.6 135.901 315Z" fill="#3E1714"/>
<path d="M152.501 318.9C151.901 319.8 150.501 320.1 149.701 319C148.201 317 151.801 315 152.701 317.4C152.901 318 152.801 318.5 152.501 318.9Z" fill="#3E1714"/>
<path d="M140.701 326C139.601 325.6 138.801 324.9 138.701 324.9C138.501 324.8 138.501 324.5 138.701 324.4C138.801 324.2 139.101 324.2 139.201 324.4C139.201 324.4 141.301 326.1 143.001 325.5C145.201 324.8 144.201 319.3 143.601 317.2C143.501 317 143.701 316.8 143.901 316.7C144.101 316.6 144.301 316.8 144.401 317C144.501 317.3 146.701 325.1 143.301 326.2C142.401 326.5 141.501 326.3 140.701 326Z" fill="#3E1714"/>
<path d="M135.7 328.6C135.2 328.6 134.8 329 134.9 329.5C135 330.7 135.7 331.9 136.6 332.7C137.5 333.5 138.6 333.9 139.8 333.7C141.3 333.5 143.5 331.5 141.2 330.5C139.5 329.8 137.5 328.6 135.7 328.6Z" fill="#3E1714"/>
<path d="M118.4 320.3C118.5 320 118.4 319.6 118.3 319.4C117.7 317.3 117.6 315.2 117.9 313.1C117.9 312.8 118 312.5 117.8 312.3C117.7 312.2 117.6 312.2 117.4 312.1C117.1 312 116.7 311.9 116.3 311.9C115.1 311.9 114.9 313.2 115 314.1C115.1 315.7 115.4 317.2 116 318.6C116.2 319.2 116.5 319.8 116.9 320.3C117.1 320.6 117.5 320.9 117.9 320.8C118.3 320.7 118.4 320.5 118.4 320.3Z" fill="#974221"/>
<path d="M119.1 321.4C119.5 321.4 119.9 321.5 120.2 321.8C121.1 322.9 120.2 325.8 119.9 327.1C119.7 327.9 119.5 328.6 118.6 328.1C117.6 327.6 116.7 326.9 115.9 326.1C115.5 325.6 115.1 325.1 115 324.4C114.6 322.3 117.3 321.4 119 321.4H119.1Z" fill="#EB834B"/>
<path d="M163.5 505.6C163.5 505.6 158.5 513.6 148.5 512.6C138.5 511.6 135.5 512.6 122.5 507.6C122.5 507.6 115.4 503.7 105.5 498.3C97.3 493.8 87.1 488.2 77.5 483V486.6C77.5 487.6 67.5 488.6 67.5 488.6L64.8999 485.1L55.5 472.6C55.5 472.6 56.7 472.6 58.5 472.6C51.5 468.8 46.5 466.1 45.5 465.6C41.5 463.6 34.5 456.6 34.5 448.6C34.5 440.6 35.5 425.6 35.5 425.6L108.5 433.6C108.5 433.6 108.7 433.8 109.1 434.1C112.9 437.5 135 457.6 149.9 472.7C157.1 480 162.6 486.1 163.5 488.6C166.5 496.6 163.5 505.6 163.5 505.6Z" fill="#191919"/>
<path opacity="0.5" d="M146.5 470.3C131.5 477.5 112.4 490.6 103.9 496.6C95.9999 492 86.2 486.3 77 480.9V484.6C77 485.6 67.3999 486.7 67.3999 486.7L64.8999 483.1L107.3 430.6C110.9 434.1 132.2 454.8 146.5 470.3Z" fill="#070707"/>
<path d="M140.5 491.6C138 490 135.6 488.3 133.2 486.5C130.8 484.8 128.5 483 126.1 481.2C123.8 479.4 121.4 477.7 119 475.9C117.8 475 116.6 474.2 115.4 473.4C114.2 472.6 112.9 471.8 111.5 471.5C113 471.4 114.5 472 115.9 472.5C117.3 473.1 118.6 473.8 119.9 474.5C122.5 476 124.9 477.7 127.3 479.5C129.7 481.3 132 483.2 134.2 485.2C136.4 487.3 138.5 489.3 140.5 491.6Z" fill="#070707"/>
<path d="M62.5 488.9C62.5 488.9 58.5 502.4 61.5 505.3C64.5 508.2 63.5 510.1 63.5 510.1C63.5 510.1 61.6 510.2 59.2 510.4C55.4 510.6 50.3 510.7 48.5 510.1C45.5 509.1 32.5 484.1 33.5 479.2C33.5 479.2 33.5999 479.1 33.8999 479C35.6999 477.8 44.2 472.4 49.5 471.5C49.5 471.5 52.5 472.5 55.5 472.5C58.5 472.5 67.5 485 67.5 485V487.9L62.5 488.9Z" fill="#C8CCCA"/>
<path d="M55.4999 508.6C56.8999 508.6 58.1999 509.6 59.1999 510.4C55.3999 510.6 50.2999 510.7 48.4999 510.1C45.4999 509.1 30.4999 483.5 33.4999 479.2C33.4999 479.2 33.5998 479.1 33.8998 479C47.2998 481.7 45.0999 494.6 49.4999 503.4C50.6999 505.8 52.4999 508.6 55.4999 508.6Z" fill="#AAAFAC"/>
<path d="M116.5 389.6C116.5 389.6 133.5 416.6 143.5 420.6C153.5 424.6 188.5 442.6 188.5 442.6C188.5 442.6 197.5 458.6 203.5 456.6C209.5 454.6 216.5 453.6 214.5 448.6C212.5 443.6 207.5 439.6 207.5 439.6C207.5 439.6 208.5 438.6 212.5 437.6C216.5 436.6 215.5 433.6 215.5 433.6C215.5 433.6 209.5 435.6 205.5 435.6C201.5 435.6 197.5 434.6 197.5 434.6C197.5 434.6 166.5 411.6 158.5 409.6C150.5 407.6 130.5 375.6 130.5 375.6L116.5 389.6Z" fill="#974221"/>
<path d="M34.8 438.7C34.8 438.7 30.7999 473 62.6999 471.1C94.5999 469.2 84.6999 469.8 84.6999 469.8L79.1999 478.1L95.8 487.1C95.8 487.1 132.3 459.9 153.7 449.6C175.1 439.3 172.9 435.5 173.7 432.4C174.5 429.3 173.1 421.4 167.8 417.7C162.6 414 138.8 401.4 109.3 411.1C109.3 411.1 95.4999 414.9 90.4999 415.2C85.4999 415.5 76.3 413 76.3 413L48.4999 416.6L37.6 418.2L34.8 438.7Z" fill="#222222"/>
<path d="M324.1 511.6H187C180.7 511.6 175.6 507.3 175.6 502.1V388C175.6 382.7 180.7 378.5 187 378.5H235.2C237 378.5 238.3 377.1 238 375.7C237.8 374.6 237.4 373.6 237 372.6C236.6 371.6 236 370.7 235.4 369.8C233.5 366.9 232.5 363.6 232.7 360.1C232.7 359.1 232.9 358.1 233.1 357.2C235 348.8 243.9 342.2 254.5 341.8C266.1 341.3 276 348.1 278 357.2C278.3 358.4 278.4 359.6 278.4 360.8C278.4 364.1 277.4 367.3 275.6 370C275 370.9 274.5 371.8 274.1 372.7C273.7 373.7 273.3 374.8 273.1 375.8C272.8 377.3 274.1 378.6 275.9 378.6H324.2C330.5 378.6 335.6 382.9 335.6 388.1V502.2C335.5 507.3 330.4 511.6 324.1 511.6Z" fill="#E0E0E0"/>
<path d="M255.9 469.5C251.5 470 250.6 466 251.2 464.4C252.2 464.4 259.8 464.4 259.9 464.4C260.2 466.9 258.8 469.5 255.9 469.5Z" fill="#707070"/>
<path d="M258.1 465.3C249.8 465.8 248.2 464.1 249 459C250.5 459 262 459.1 262 459.1C262.3 462.1 261.6 465.2 258.1 465.3Z" fill="#A3A3A3"/>
<path d="M270.1 442.7C270.2 447.7 267.5 451.1 264.8 454.6C264.7 461.8 262 459.9 254.2 460.1C248.6 460.2 245.8 460.5 246.2 455.1C245 452.1 241.5 449.5 241.2 445.6C238.3 423.3 269.3 421.5 270.1 442.7Z" fill="#F9BF2E"/>
<path d="M244.5 426.7C244.2 428.4 241.5 426.7 243.7 425.9C243.9 426 244.3 426.1 244.5 426.7Z" fill="#F9BF2E"/>
<path d="M255.6 422.4C255.3 424.1 252.6 422.4 254.8 421.6C255 421.6 255.4 421.8 255.6 422.4Z" fill="#F9BF2E"/>
<path d="M268.1 426.7C267.8 428.4 265.1 426.7 267.3 425.9C267.6 426 268 426.1 268.1 426.7Z" fill="#F9BF2E"/>
<path d="M136.5 375.6C136.5 375.6 153.5 402.6 163.5 406.6C173.5 410.6 208.5 428.6 208.5 428.6C208.5 428.6 217.5 444.6 223.5 442.6C229.5 440.6 236.5 439.6 234.5 434.6C232.5 429.6 227.5 425.6 227.5 425.6C227.5 425.6 228.5 424.6 232.5 423.6C236.5 422.6 235.5 419.6 235.5 419.6C235.5 419.6 229.5 421.6 225.5 421.6C221.5 421.6 217.5 420.6 217.5 420.6C217.5 420.6 186.5 397.6 178.5 395.6C170.5 393.6 150.5 361.6 150.5 361.6L136.5 375.6Z" fill="#B44F28"/>
<path d="M35.5 434.6C35.5 434.6 36.5 420.6 38.5 416.6C40.5 412.6 42.5 413.6 44.5 410.6C46.5 407.6 69.5 365.6 104.5 344.6C104.5 344.6 107.5 341.6 114.5 338.6C121.5 335.6 133.5 342.6 138.5 347.6C143.5 352.6 158.5 369.6 158.5 369.6L137.5 381.6C137.5 381.6 135.5 394.6 129.5 397.6C123.5 400.6 108.5 400.6 108.5 400.6L94.5 413.6H103.5C103.5 413.6 89.5 429.6 73.5 432.6C57.5 435.6 35.5 434.6 35.5 434.6Z" fill="#A7C0FF"/>
<path d="M44.3999 412.6C45.9999 412.7 47.7 413 49.3 413.3C50.9 413.6 52.5001 414.1 54.1001 414.5C57.2001 415.4 60.2999 416.5 63.3999 417.3C66.4999 418.2 69.6999 418.7 72.8999 418.8C76.0999 418.8 79.4 418.3 82.3 416.8C80.9 417.7 79.4 418.4 77.8 418.8C76.2 419.2 74.5999 419.5 72.8999 419.5C69.5999 419.6 66.3001 419.1 63.1001 418.2C59.9001 417.3 56.9 416.2 53.8 415.1C50.7 414.2 47.5999 413.2 44.3999 412.6Z" fill="#3366CC"/>
<path d="M115 375.1C115.2 374.2 115.8 373.4 116.4 372.7C117.1 372 117.9 371.5 118.8 371.1C120.6 370.3 122.5 370 124.4 369.9C126.3 369.8 128.2 370 130 370.4C130.9 370.6 131.8 370.9 132.7 371.3C133.5 371.7 134.4 372.2 134.9 373C134.3 372.3 133.4 372 132.5 371.7C131.6 371.4 130.7 371.3 129.8 371.1C128 370.8 126.2 370.7 124.3 370.8C122.5 370.9 120.7 371.1 119 371.7C117.5 372.4 115.8 373.4 115 375.1Z" fill="#3366CC"/>
<path d="M124.9 366.7C124.4 366.3 124.1 365.6 123.9 365C123.7 364.4 123.6 363.7 123.5 363C123.4 361.7 123.6 360.3 124.1 359C124.6 357.7 125.4 356.5 126.5 355.7C127.6 354.9 128.9 354.5 130.2 354.3C129 354.8 127.9 355.4 127 356.3C126.1 357.2 125.5 358.2 125 359.4C124.6 360.5 124.3 361.8 124.3 363C124.3 363.3 124.3 363.6 124.3 363.9C124.3 364.2 124.3 364.5 124.4 364.8C124.5 365.5 124.6 366.2 124.9 366.7Z" fill="#3366CC"/>
<path d="M84 470.1L100.4 459.3C103.1 457.5 105.8 455.7 108.5 453.8C111.2 452 113.9 450.1 116.5 448.1C119.1 446.2 121.7 444.2 124.1 442C125.3 440.9 126.4 439.8 127.4 438.6C127.9 438 128.4 437.3 128.9 436.7C129.4 436.1 130 435.4 130.6 434.8C132.9 432.4 135.7 430.4 138.8 429.1C140.3 428.5 142 428 143.6 427.7C145.2 427.4 146.9 427.3 148.5 427.6C145.2 427.6 142 428.5 139.2 430C136.3 431.5 133.8 433.5 131.7 435.9C131.2 436.5 130.7 437.1 130.2 437.8C129.7 438.4 129.3 439.1 128.8 439.8C127.8 441.2 126.6 442.4 125.4 443.5C123 445.8 120.4 447.8 117.8 449.8C112.5 453.7 107 457.3 101.4 460.7C95.5999 464 89.9 467.2 84 470.1Z" fill="#191919"/>
<path d="M94.5 413.6L87.5 414.6C87.5 414.6 95.5 406.6 98.5 405.6C101 404.8 106.5 397.6 106.5 397.6C106.5 397.6 106.5 397.6 107.5 399.6C107.9 400.5 108.5 400.6 108.5 400.6L94.5 413.6Z" fill="#3366CC"/>
<path d="M120.9 507.6C120.8 509.2 120.5 510.6 120.5 510.6H61.5C60.9 510 60.6001 508.9 60.6001 507.6C60.6001 498.6 73.5 476.6 73.5 476.6C73.5 476.6 76.5 475.6 84.5 478.6C92.5 481.6 94.5 484.6 94.5 484.6L98.5 479.6L101.5 481.6C101.5 481.6 97.5 489.6 100.5 493.6C103.5 497.6 104.5 496.6 106.5 498.6C108.5 500.6 119.5 502.6 120.5 504.6C120.9 505.4 121 506.5 120.9 507.6Z" fill="#E5E5E5"/>
<path d="M120.9 507.6C120.8 509.2 120.5 510.6 120.5 510.6H61.5C60.9 510 60.6001 508.9 60.6001 507.6H120.9Z" fill="#ADADAD"/>
<path d="M389.5 142.6C389.5 142.6 367.5 162.6 368.5 154.6C368.7 153.2 368.7 151.7 368.7 150C368.7 149.5 368.7 149 368.7 148.5C368.4 141.4 366.8 133.6 366.6 132.6C366.6 132.5 366.6 132.5 366.6 132.5L372.5 122.4L374.3 119.2L377.6 113.5C377.6 113.5 378.6 119.8 381.6 129.5C381.9 130.5 382.2 131.5 382.6 132.5C384.5 138.6 389.5 142.6 389.5 142.6Z" fill="#B44F28"/>
<path d="M381.5 129.6C380.4 133.1 378.6 137.2 375.5 141.6C373.2 144.9 370.9 147.1 368.6 148.6C368.3 141.1 366.5 132.6 366.5 132.6L377.5 113.6C377.5 113.6 378.5 119.9 381.5 129.6Z" fill="#974221"/>
<path d="M375.9 127.6C375.5 125 374.8 122.4 374.3 119.8C374.3 119.6 374.2 119.5 374.2 119.3C373.8 117.3 373.2 114.8 373.5 112.8C373 115.8 373 118.9 372.5 121.9C372.5 122.1 372.4 122.3 372.4 122.4C371.9 125.2 371 128.1 369.2 130.3C368.4 131.3 367.5 132.1 366.6 132.6C366.8 133.6 368.4 141.4 368.7 148.5C368.7 149 368.7 149.5 368.7 150C371.4 148.2 373.2 145.3 374.4 142.3C376.3 137.6 376.6 132.6 375.9 127.6Z" fill="#974221"/>
<path d="M277.5 267.6C277.5 267.6 262.5 275.6 263.5 278.6C264.5 281.6 273.5 297.6 285.5 285.6C297.5 273.6 297.5 273.6 297.5 273.6C297.5 273.6 358.5 264.6 361.5 255.6C364.5 246.6 368.5 212.6 368.5 204.6C368.5 196.6 343.5 198.6 343.5 198.6C343.5 198.6 341.5 225.6 344.5 233.6C346.2 238 335.4 240.5 326.5 244.6C311.6 251.5 293.3 259.3 292.5 260.6L282.5 259.6C282.5 259.6 270.5 265.6 269.5 265.6C268.5 265.6 269.5 269.6 277.5 267.6Z" fill="#974221"/>
<path d="M365.7 252.6C365.7 252.6 320.3 334 326.5 351.9C332.6 369.9 356.2 443.7 367.3 456.6C378.4 469.5 388.3 456.4 388.3 456.4C388.3 456.4 391.7 379.4 381.6 361.4C381.6 361.4 397.3 328.3 400.2 306.3C403 284.3 406.8 260.2 406.8 260.2L365.7 252.6Z" fill="#B79963"/>
<path d="M412.5 462.6L429.5 465.6C429.5 465.6 450.5 464.6 449.5 416.6C448.5 368.6 448.5 282.6 440.5 266.6C432.5 250.6 392.5 266.6 392.5 266.6C392.5 266.6 391.5 361.6 397.5 381.6C403.5 401.6 402.5 456.6 412.5 462.6Z" fill="#C3A86F"/>
<path d="M344.5 201.6L369.5 204.6L366.5 147.2C366.5 147.2 356.5 147.6 351.5 159.6C346.5 171.6 341.5 200.6 341.5 200.6L344.5 201.6Z" fill="#EF8007"/>
<path d="M445.5 287.6C445.5 287.6 407.4 287.6 384.4 280.3C381.9 279.5 379.5 278.6 377.5 277.6L371.3 274.9L363.5 271.6V223.6C363.5 222.6 356.5 199.6 354.5 196.6C352.5 193.6 357.5 162.6 358.5 156.6C359.5 150.6 368.5 145.6 368.5 145.6L369.5 151.6C369.5 151.6 387.5 142.6 387.5 140.6C387.5 140.6 415.5 142.6 421.5 151.6C423.7 154.8 426.7 162.2 429.8 172C430.5 174.3 431.2 176.7 431.9 179.2C432.7 182 433.5 185 434.2 188.1C435.8 194.4 437.2 201.1 438.3 208C440 217.7 441.1 227.9 441.4 237.6C442.5 273.6 445.5 287.6 445.5 287.6Z" fill="#FC8C00"/>
<path d="M282.6 299.8C293.3 301 301.4 309.5 301.1 319C301 322.4 299.8 325.5 297.9 328.2C296 330.8 294.8 333.8 294.6 336.9L294.5 337.6L341.2 341C346.9 341.4 351.9 337.6 352.2 332.6L360.2 222.3C360.6 217.2 356.2 212.8 350.5 212.4L303.8 209L303.7 209.7C303.5 212.8 304.3 215.9 305.7 218.8C307.2 221.7 307.9 225 307.5 228.3C306.5 237.7 297.2 245 286.5 244.6C274.6 244.2 265.3 235.1 266.1 224.7C266.3 221.5 267.5 218.5 269.3 216C271.2 213.4 272.3 210.5 272.6 207.4L272.7 206.6L226 203.2C220.3 202.8 215.3 206.6 215 211.6L212.2 250.4C212.1 251.8 210.6 252.8 209 252.4C206.8 251.9 204.7 251 202.8 249.9C199.9 248.2 196.6 247.2 193 246.9C181.2 246 171.1 254 170.9 264.6C170.7 274.1 179 282.5 189.7 283.6C193.5 284 197.2 283.4 200.4 282.2C202.5 281.4 204.8 280.8 207 280.6C208.6 280.5 210 281.7 209.9 283.1L207.1 321.9C206.7 327 211.1 331.4 216.8 331.8L263.5 335.2L263.6 334.4C263.8 331.3 263.1 328.3 261.6 325.5C260.2 322.7 259.4 319.7 259.7 316.4C260.3 306.1 270.7 298.4 282.6 299.8Z" fill="#191919"/>
<path d="M387.5 259.6L384.4 280.3C381.9 279.5 379.5 278.6 377.5 277.6L371.3 274.9L363.5 271.6V223.6C363.5 223.6 391.5 214.6 387.5 259.6Z" fill="#EF8007"/>
<path d="M431.9 179.2C431.5 205.6 422.2 247.8 420.5 255.6C418.5 264.6 363.5 271.6 363.5 271.6V266.6L404.5 235.6L429.5 171.6L429.8 172C430.5 174.3 431.3 176.7 431.9 179.2Z" fill="#EF8007"/>
<path d="M331.5 264.6C331.5 264.6 316.5 272.6 317.5 275.6C318.5 278.6 327.5 294.6 339.5 282.6C351.5 270.6 351.5 270.6 351.5 270.6C351.5 270.6 412.5 261.6 415.5 252.6C418.5 243.6 422.5 209.6 422.5 201.6C422.5 193.6 397.5 195.6 397.5 195.6C397.5 195.6 395.5 222.6 398.5 230.6C400.2 235 389.4 237.5 380.5 241.6C365.6 248.5 347.3 256.3 346.5 257.6L336.5 256.6C336.5 256.6 324.5 262.6 323.5 262.6C322.5 262.6 323.5 266.6 331.5 264.6Z" fill="#B44F28"/>
<path d="M429.5 171.6C429.5 171.6 427.5 212.6 422.5 212.6C422.5 212.6 400.5 211.6 396.5 205.6C392.5 199.6 387.5 166.6 392.5 158.6C397.5 150.6 398.5 149.6 398.5 149.6" fill="#FC8C00"/>
<path d="M354.5 143.6C354.5 143.6 364.5 148.6 374.5 134.6C384.5 120.6 381.5 109.6 381.5 109.6C381.5 109.6 381.5 96.6 372.5 93.6C363.5 90.6 342.5 89.6 341.5 98.6C340.5 107.6 341.5 139.6 354.5 143.6Z" fill="#B44F28"/>
<path d="M373.5 95.6002C373.5 95.6002 370.2 100.7 375.5 108.6C379.5 114.6 375.9 121 379.5 124.6C381.5 126.6 388.5 120.6 388.5 109.6C388.5 98.6002 382.5 77.6002 363.5 81.6002C344.5 85.6002 348.5 84.6002 348.5 84.6002C348.5 84.6002 360.3 89.3002 363.5 95.6002C365.5 99.6002 373.5 95.6002 373.5 95.6002Z" fill="#3E1714"/>
<path d="M376.8 119.9C376.8 119.7 376.8 119.4 376.8 119.2C376.8 116.5 374.3 114.4 374.6 111.7C374.8 109.9 376.2 108.6 377.7 108.1C379 107.7 380.4 107.7 381.6 108.4C386 110.9 384.7 119.3 382.4 123C381.7 124.2 380.7 125.2 379.5 125.6C378.3 126 376.9 125.4 376.4 124.1C376 122.7 376.6 121.3 376.8 119.9Z" fill="#B44F28"/>
<path d="M376.6 118.6C376.6 118.5 376.6 118.3 376.6 118.2C376.6 116.5 374.9 115.1 375.1 113.5C375.2 112.4 376.2 111.6 377.3 111.3C378.2 111 379.2 111.1 380 111.5C383 113.1 382.1 118.4 380.5 120.7C380 121.4 379.3 122.1 378.5 122.3C377.7 122.5 376.7 122.1 376.4 121.3C376 120.3 376.4 119.4 376.6 118.6Z" fill="#974221"/>
<path d="M373 108.3C372.5 105.3 372 102.1 370.4 99.4999C369.4 97.7999 368 96.2999 366.1 95.6999C362.9 94.5999 359.5 96.2999 356.8 98.1999C353 100.8 349.5 103.5 344.7 102.2C338 100.3 331.5 93.5 334 86.3C336.7 78.5 346.6 77.7999 353.1 80.9999C355.4 82.0999 357.5 83.7001 360 84.4001C362.5 85.1001 365.1 84.3001 367.7 84.9001C370.2 85.5001 372.2 87.5 373.4 89.8C375.1 93.2 375.8 97.4 375.6 101.1C375.3 103.6 374.6 106.2 373 108.3Z" fill="#3E1714"/>
<path d="M366.2 112.6C366.1 112.6 365.9 112.6 365.8 112.4C365.7 112.3 364.2 109.7 360.6 109.8C356.8 109.9 354.7 111.8 354.6 111.8C354.5 111.9 354.2 111.9 354.1 111.8C354 111.7 354 111.4 354.1 111.3C354.2 111.2 356.5 109.2 360.5 109.1C364.6 109 366.3 112 366.4 112.1C366.5 112.3 366.4 112.5 366.3 112.6C366.3 112.5 366.3 112.6 366.2 112.6Z" fill="#3E1714"/>
<path d="M339 114.7H338.9C338.7 114.6 338.6 114.4 338.7 114.3C338.7 114.2 339.8 110.9 343.9 110.2C347.9 109.5 350.5 111 350.6 111.1C350.8 111.2 350.8 111.4 350.7 111.6C350.6 111.8 350.4 111.8 350.2 111.7C350.2 111.7 347.7 110.3 344 110.9C340.4 111.6 339.4 114.4 339.4 114.5C339.2 114.6 339.1 114.7 339 114.7Z" fill="#3E1714"/>
<path d="M346.2 115C346.1 116 345 116.9 343.9 116.3C341.8 115.3 343.9 112 345.7 113.7C346.1 114.1 346.2 114.5 346.2 115Z" fill="#3E1714"/>
<path d="M361.8 114.6C361.7 115.6 360.6 116.5 359.5 115.9C357.4 114.9 359.5 111.6 361.3 113.3C361.8 113.7 361.9 114.2 361.8 114.6Z" fill="#3E1714"/>
<path d="M349.5 126.6C351.5 126.6 353.3 125.1 353.4 125C353.6 124.9 353.6 124.6 353.4 124.4C353.3 124.2 353 124.2 352.8 124.4C352.8 124.4 350.1 126.7 348.1 125.4C345.7 124 349.3 117 350.9 114.4C351 114.2 351 114 350.8 113.9C350.6 113.8 350.4 113.8 350.2 114C349.6 115 344.2 124 347.7 126.1C348.3 126.4 348.9 126.6 349.5 126.6Z" fill="#3E1714"/>
<path d="M348 132.6C347.7 132.8 347.9 133.3 348 133.5C348.3 134.1 348.7 134.7 349.3 135.1C350.1 135.6 351.2 135.8 352.2 135.8C352.8 135.8 353.4 135.7 353.9 135.5C354.6 135.2 355.1 134.6 355.3 133.9C355.4 133.5 355.5 133.1 355.5 132.7C355.5 132.5 355.3 132.3 355.1 132.3C352.9 132.3 350.7 132.4 348.6 132.4C348.5 132.4 348.4 132.4 348.2 132.4C348.1 132.6 348.1 132.6 348 132.6Z" fill="#3E1714"/>
<path d="M375.9 123.6C375.5 121 374.8 118.4 374.3 115.8C373.9 113.7 373.1 110.9 373.5 108.8C373 111.8 373 114.9 372.5 117.9C372 120.9 371.1 124 369.2 126.3C363.3 133.7 354.5 126.7 347 128.1C346.1 128.3 345.1 128.6 344.7 129.4C344.7 129.5 344.7 129.5 344.6 129.6C344.4 130 344.5 130.5 344.5 131C344.9 137.4 347.4 143.6 351.5 148.4C352.1 149.1 352.6 149.7 353.4 150.1C354.9 150.7 356.6 150.1 358.2 149.7C361.6 148.6 365.4 148.2 368.4 146.2C371.2 144.4 373.1 141.4 374.4 138.3C376.3 133.6 376.6 128.6 375.9 123.6ZM358.5 137.5C358.3 137.9 357.9 138.2 357.5 138.4C355.3 139.6 351.7 139.9 349.8 137.9C349.2 137.3 348.8 136.5 348.4 135.8C348.1 135.2 347.7 134.6 347.4 134C347.2 133.6 346.6 132.9 346.7 132.4C346.7 132.2 346.8 132 346.9 131.9C347.3 131.4 348.4 131.3 349 131.3C350.3 131.2 351.7 131.2 353 131.1C354.1 131 355.3 131 356.3 131.5C357.3 132.1 357.9 133.1 358.2 134.1C358.5 135.1 359.1 136.6 358.5 137.5Z" fill="#3E1714"/>
<path d="M400.5 482.6L393.5 492.6C393.5 492.6 392.5 491.6 389.5 493.6C386.5 495.6 386.5 498.6 386.5 498.6C386.5 498.6 380.5 504.6 373.5 509.6C366.5 514.6 356.5 510.6 353.5 509.6C350.7 508.7 352.2 504.3 352.5 501.3C352.5 501.1 352.5 500.8 352.5 500.6C352.5 497.6 365.5 480.6 366.5 473.6C367.4 466.9 363.9 451.2 363.5 449.7C363.5 449.6 363.5 449.6 363.5 449.6C363.5 449.6 363.6 449.7 363.9 449.7C365.2 450.1 369.8 451.4 376.5 450.6C376.7 450.6 376.9 450.5 377.1 450.5C377.7 450.4 378.2 450.3 378.7 450.2C384.9 448.7 386.6 444.6 386.6 444.6C386.6 444.6 389.6 459.6 391.6 461.6C393.6 463.6 400.5 482.6 400.5 482.6Z" fill="#3498DB"/>
<path d="M383.5 482.6C382.5 489.6 368.5 497.6 363.5 502.6C360.1 506 355.2 503.3 352.5 501.3C352.5 501.1 352.5 500.8 352.5 500.6C352.5 497.6 365.5 480.6 366.5 473.6C367.4 466.9 363.9 451.2 363.5 449.7H363.9C365.2 450.1 369.8 451.4 376.5 450.6C376.7 450.6 376.9 450.5 377.1 450.5C377.7 450.4 378.2 450.3 378.7 450.2C379.5 454.1 384.4 476.2 383.5 482.6Z" fill="#3366CC"/>
<path d="M437.5 511.6C437.5 511.6 431.5 512.6 429.5 511.6C427.5 510.6 425.5 509.6 425.5 509.6C425.5 509.6 424.5 511.6 422.5 511.6C420.5 511.6 394.5 513.6 392.5 511.6C390.5 509.6 390.5 509.6 390.5 509.6C390.5 509.6 390.5 504.4 391.8 501.7C392 501.3 392.2 500.9 392.5 500.6C394.5 498.6 402.5 493.6 405.5 488.6C408.5 483.6 410.5 459.6 410.5 459.6C410.5 459.6 423.7 458.8 429.1 460.9C429.6 461.1 430.1 461.3 430.5 461.6C434.5 464.6 434.5 466.6 434.5 466.6V484.6C434.5 484.6 436.5 494.6 437.5 501.6C438.5 508.6 437.5 511.6 437.5 511.6Z" fill="#3498DB"/>
<path d="M427.5 489.6C429.5 503.6 417.5 499.6 410.5 502.6C404.1 505.3 393.6 502.3 391.8 501.7C392 501.3 392.2 500.9 392.5 500.6C394.5 498.6 402.5 493.6 405.5 488.6C408.5 483.6 410.5 459.6 410.5 459.6C410.5 459.6 423.7 458.8 429.1 460.9C428.3 466.4 426.3 480.9 427.5 489.6Z" fill="#3366CC"/>
<g clip-path="url(#clip0_1423_119)">
<path d="M291.438 258.938H274.562C271.456 258.938 268.938 261.456 268.938 264.562V281.438C268.938 284.544 271.456 287.062 274.562 287.062H291.438C294.544 287.062 297.062 284.544 297.062 281.438V264.562C297.062 261.456 294.544 258.938 291.438 258.938Z" fill="url(#paint0_linear_1423_119)"/>
<path opacity="0.9" d="M287.688 266.438H278.312C277.797 266.438 277.375 266.859 277.375 267.375V270.188H288.625V267.375C288.625 266.859 288.203 266.438 287.688 266.438Z" fill="white"/>
<path opacity="0.9" d="M288.625 270.188H277.375V278.625C277.375 279.141 277.797 279.562 278.312 279.562H287.688C288.203 279.562 288.625 279.141 288.625 278.625V270.188Z" fill="white"/>
<path opacity="0.9" d="M291.906 276.75C291.906 274.679 290.227 273 288.156 273C286.085 273 284.406 274.679 284.406 276.75C284.406 278.821 286.085 280.5 288.156 280.5C290.227 280.5 291.906 278.821 291.906 276.75ZM293.781 276.75C293.781 279.857 291.263 282.375 288.156 282.375C285.05 282.375 282.531 279.857 282.531 276.75C282.531 273.643 285.05 271.125 288.156 271.125C291.263 271.125 293.781 273.643 293.781 276.75Z" fill="white"/>
<path opacity="0.9" d="M290.775 279.368C291.129 279.014 291.697 279.003 292.065 279.335L292.1 279.368L294.913 282.181L294.946 282.216C295.279 282.584 295.267 283.152 294.913 283.507C294.558 283.861 293.99 283.872 293.622 283.54L293.587 283.507L290.775 280.694L290.741 280.659C290.409 280.291 290.42 279.723 290.775 279.368Z" fill="white"/>
<path opacity="0.9" d="M280.656 268.312H274.094C273.835 268.312 273.625 268.522 273.625 268.781V277.219C273.625 277.478 273.835 277.688 274.094 277.688H280.656C280.915 277.688 281.125 277.478 281.125 277.219V268.781C281.125 268.522 280.915 268.312 280.656 268.312Z" fill="white"/>
<path d="M279.719 270.422C279.848 270.422 279.953 270.527 279.953 270.656C279.953 270.786 279.848 270.891 279.719 270.891H275.031C274.902 270.891 274.797 270.786 274.797 270.656C274.797 270.527 274.902 270.422 275.031 270.422H279.719Z" fill="#3498DB"/>
<path d="M279.719 272.297C279.848 272.297 279.953 272.402 279.953 272.531C279.953 272.661 279.848 272.766 279.719 272.766H275.031C274.902 272.766 274.797 272.661 274.797 272.531C274.797 272.402 274.902 272.297 275.031 272.297H279.719Z" fill="#3498DB"/>
<path d="M279.719 274.172C279.848 274.172 279.953 274.277 279.953 274.406C279.953 274.536 279.848 274.641 279.719 274.641H275.031C274.902 274.641 274.797 274.536 274.797 274.406C274.797 274.277 274.902 274.172 275.031 274.172H279.719Z" fill="#3498DB"/>
<path d="M278.078 276.047C278.208 276.047 278.312 276.152 278.312 276.281C278.312 276.411 278.208 276.516 278.078 276.516H275.031C274.902 276.516 274.797 276.411 274.797 276.281C274.797 276.152 274.902 276.047 275.031 276.047H278.078Z" fill="#3498DB"/>
</g>
<path d="M314.5 0L316 6.30005L320.4 7.5L316 8.69995L314.5 15L313 8.69995L308.6 7.5L313 6.30005L314.5 0Z" fill="#DECEAC"/>
<path d="M428 85.8L430.6 96.5L438 98.5L430.6 100.5L428 111.3L425.4 100.5L418 98.5L425.4 96.5L428 85.8Z" fill="#DECEAC"/>
<path d="M209.8 360L210.8 363.3L213.9 364L210.8 364.6L209.8 368L208.7 364.6L205.7 364L208.7 363.3L209.8 360Z" fill="#DECEAC"/>
<path d="M79.3999 21L81.7 30.7L88.3999 32.5L81.7 34.3L79.3999 44L77 34.3L70.3999 32.5L77 30.7L79.3999 21Z" fill="#DECEAC"/>
<path d="M9.80005 252L12.3999 262.5L19.6001 264.5L12.3999 266.5L9.80005 277L7.30005 266.5L0 264.5L7.30005 262.5L9.80005 252Z" fill="#DECEAC"/>
<defs>
<linearGradient id="paint0_linear_1423_119" x1="268.938" y1="258.938" x2="3081.44" y2="3071.44" gradientUnits="userSpaceOnUse">
<stop stop-color="#3498DB"/>
<stop offset="1" stop-color="#2980B9"/>
</linearGradient>
<clipPath id="clip0_1423_119">
<rect width="30" height="30" fill="white" transform="translate(268 258)"/>
</clipPath>
</defs>
</svg>
